<svg id="https://s3.ap-south-1.amazonaws.com/walkover.things-of-brand.assets/488fbc8765bf71996da815917169213f" width="159" height="55" viewBox="0 0 159 55" fill="none" xmlns="http://www.w3.org/2000/svg">
<path d="M67.8849 25.3622C67.4375 22.1307 64.9517 20.2557 61.7273 20.2557C57.9276 20.2557 55.0653 23.0256 55.0653 27.7273C55.0653 32.4219 57.892 35.1989 61.7273 35.1989C65.1861 35.1989 67.4801 32.9616 67.8849 30.1847L65.2287 30.1705C64.8949 31.875 63.5028 32.8338 61.7628 32.8338C59.4048 32.8338 57.7145 31.0653 57.7145 27.7273C57.7145 24.446 59.3906 22.6207 61.7699 22.6207C63.5384 22.6207 64.9233 23.6222 65.2287 25.3622H67.8849ZM74.9428 35.2131C78.1388 35.2131 80.1701 32.9616 80.1701 29.5881C80.1701 26.2074 78.1388 23.9489 74.9428 23.9489C71.7468 23.9489 69.7156 26.2074 69.7156 29.5881C69.7156 32.9616 71.7468 35.2131 74.9428 35.2131ZM74.957 33.1534C73.1886 33.1534 72.3221 31.5767 72.3221 29.581C72.3221 27.5852 73.1886 25.9872 74.957 25.9872C76.6971 25.9872 77.5636 27.5852 77.5636 29.581C77.5636 31.5767 76.6971 33.1534 74.957 33.1534ZM86.4006 35.1918C88.2756 35.1918 89.1207 34.0767 89.5256 33.2812H89.6818V35H92.2102V20.4545H89.6321V25.8949H89.5256C89.1349 25.1065 88.3324 23.9489 86.4077 23.9489C83.8864 23.9489 81.9048 25.9233 81.9048 29.5597C81.9048 33.1534 83.8295 35.1918 86.4006 35.1918ZM87.1179 33.0824C85.4205 33.0824 84.5256 31.5909 84.5256 29.5455C84.5256 27.5142 85.4062 26.0582 87.1179 26.0582C88.7727 26.0582 89.6818 27.429 89.6818 29.5455C89.6818 31.6619 88.7585 33.0824 87.1179 33.0824ZM99.7795 35.2131C102.322 35.2131 104.069 33.9702 104.524 32.0739L102.123 31.804C101.775 32.7273 100.923 33.2102 99.815 33.2102C98.1531 33.2102 97.0522 32.1165 97.0309 30.2486H104.63V29.4602C104.63 25.6321 102.329 23.9489 99.6445 23.9489C96.5195 23.9489 94.4812 26.2429 94.4812 29.6094C94.4812 33.0327 96.4911 35.2131 99.7795 35.2131ZM97.038 28.5156C97.1161 27.1236 98.146 25.9517 99.68 25.9517C101.157 25.9517 102.152 27.0312 102.166 28.5156H97.038ZM106.805 35H109.376V28.5866C109.376 27.2017 110.42 26.2216 111.834 26.2216C112.267 26.2216 112.807 26.2997 113.027 26.3707V24.0057C112.793 23.9631 112.388 23.9347 112.104 23.9347C110.854 23.9347 109.81 24.6449 109.412 25.9091H109.298V24.0909H106.805V35ZM119.044 35.2131C122.24 35.2131 124.272 32.9616 124.272 29.5881C124.272 26.2074 122.24 23.9489 119.044 23.9489C115.848 23.9489 113.817 26.2074 113.817 29.5881C113.817 32.9616 115.848 35.2131 119.044 35.2131ZM119.059 33.1534C117.29 33.1534 116.424 31.5767 116.424 29.581C116.424 27.5852 117.29 25.9872 119.059 25.9872C120.799 25.9872 121.665 27.5852 121.665 29.581C121.665 31.5767 120.799 33.1534 119.059 33.1534ZM131.212 35.2131C134.408 35.2131 136.44 32.9616 136.44 29.5881C136.44 26.2074 134.408 23.9489 131.212 23.9489C128.016 23.9489 125.985 26.2074 125.985 29.5881C125.985 32.9616 128.016 35.2131 131.212 35.2131ZM131.227 33.1534C129.458 33.1534 128.592 31.5767 128.592 29.581C128.592 27.5852 129.458 25.9872 131.227 25.9872C132.967 25.9872 133.833 27.5852 133.833 29.581C133.833 31.5767 132.967 33.1534 131.227 33.1534ZM138.622 35H141.193V28.3665C141.193 27.0241 142.088 26.1151 143.196 26.1151C144.282 26.1151 145.028 26.8466 145.028 27.9688V35H147.549V28.196C147.549 26.9673 148.281 26.1151 149.524 26.1151C150.561 26.1151 151.385 26.7259 151.385 28.0753V35H153.963V27.6776C153.963 25.2415 152.556 23.9489 150.554 23.9489C148.97 23.9489 147.762 24.7301 147.279 25.9446H147.166C146.747 24.7088 145.689 23.9489 144.218 23.9489C142.755 23.9489 141.662 24.7017 141.207 25.9446H141.079V24.0909H138.622V35Z" fill="white"/>
<rect y="5" width="45" height="45" rx="6" fill="#1E5B6E"/>
<path d="M10.75 23.25L22 14.5L33.25 23.25V37C33.25 37.663 32.9866 38.2989 32.5178 38.7678C32.0489 39.2366 31.413 39.5 30.75 39.5H13.25C12.587 39.5 11.9511 39.2366 11.4822 38.7678C11.0134 38.2989 10.75 37.663 10.75 37V23.25Z" stroke="white" stroke-width="1.5" stroke-linecap="round" stroke-linejoin="round"/>
<g clip-path="url(#clip0)">
<path d="M24 31.75L27.25 28.5L24 25.25" stroke="white" stroke-width="1.5" stroke-linecap="round" stroke-linejoin="round"/>
<path d="M19.334 25.25L16.084 28.5L19.334 31.75" stroke="white" stroke-width="1.5" stroke-linecap="round" stroke-linejoin="round"/>
<path d="M22.2201 23.7329L20.9201 33.2663" stroke="white" stroke-width="1.5" stroke-linecap="round"/>
</g>
<defs>
<clipPath id="clip0">
<rect width="13" height="13" fill="white" transform="translate(15 22)"/>
</clipPath>
</defs>
</svg>