<?xml version="1.0" encoding="utf-8"?>
<svg version="1.1" id="Layer_1" xmlns="http://www.w3.org/2000/svg" xmlns:xlink="http://www.w3.org/1999/xlink" x="0px" y="0px"
	 viewBox="0 0 2876.13 5000" enable-background="new 0 0 2876.13 5000" xml:space="preserve">
<g>
	<g>
		<path fill="#5A4737" d="M2459.717,452.729c-2.227,0-4.374,0.839-5.907,2.308c-3.115,3.05-3.228,7.989-0.339,11.508l-9.361,5.084
			c-6.262,3.551-12.541,7.085-18.77,10.749c-9.377,5.455-19.222,11.863-30.149,19.61c-17.092,12.105-33.829,25.662-49.758,40.301
			c-31.262,28.712-58.684,61.912-81.489,98.71c-10.943,17.689-20.643,36.443-29.697,57.328
			c-8.506,19.545-16.834,39.268-24.774,59.071c-19.206,47.386-34.248,90.253-45.982,131.021
			c-13.783,47.935-21.789,90.543-24.452,130.295c-0.92,14.009-0.855,31.892,7.892,45.982c2.792,4.551,6.746,8.409,11.733,11.475
			c5.391,3.325,11.556,4.358,16.898,4.939c1.388,0.145,2.808,0.226,4.229,0.226c4.567,0,9.119-0.71,13.025-1.372
			c7.23-1.194,14.187-3.454,20.013-5.488c14.155-5.019,27.679-11.669,40.301-18.044c35.943-18.06,70.046-42.092,101.341-71.45
			c29.051-27.195,55.73-59.781,79.294-96.87c20.465-32.312,37.896-68.513,51.841-107.587c12.734-35.669,21.837-72.144,27.034-108.41
			c2.792-19.577,4.309-38.913,4.487-57.457c0.242-18.431-1.227-37.315-4.358-56.134c-3.018-18.399-8.409-36.701-16.01-54.374
			c-7.44-17.415-17.979-33.877-31.311-48.968C2464.058,453.601,2462.024,452.729,2459.717,452.729"/>
		<path fill="#5A4737" d="M1623.087,292.23c-2.179,0-4.261,0.839-5.713,2.324c-25.581,25.678-47.257,58.409-64.429,97.257
			c-17.043,38.654-27.082,78.003-29.81,116.948c-1.243,18.012-0.274,36.734,2.824,55.633c1.404,8.586,3.47,16.979,6.117,24.936
			c2.857,8.715,6.311,15.898,10.555,21.982c4.293,5.956,9.103,10.184,14.316,12.524c3.615,1.679,7.521,2.534,11.588,2.534
			c3.018,0,6.149-0.468,9.329-1.388c8.393-2.502,15.704-8.393,21.756-13.848c6.972-6.327,12.912-14.074,18.302-21.514
			c8.828-12.153,16.656-26.211,25.355-45.546c7.164-16.075,13.766-33.7,20.191-53.922c4.955-15.542,9.651-32.618,14.379-52.212
			c3.405-14.445,5.667-26.404,7.055-37.654c1.533-12.202,1.953-24.484,1.259-36.54c-0.42-6.278-1.307-12.75-2.582-19.255
			c-1.081-5.455-2.921-11.152-5.568-17.431c-4.503-10.781-12.314-19.674-21.998-25.049c-5.084-2.792-11.104-4.616-17.899-5.374
			c-2.26-0.21-4.471-0.323-6.617-0.323c-1.566-0.484-1.969-1.098-2.502-1.646C1627.509,293.118,1625.363,292.23,1623.087,292.23"/>
		<path fill="#F5C09B" d="M1760.432,1103.869c-3.857,0-6.94,2.195-8.021,5.729c-0.436,1.372-0.468,2.986-0.065,4.438
			c-2.082,8.167-4.471,16.237-7.053,24.306l-0.371,1.695l-0.145-0.065c-9.006,26.76-21.32,54.423-37.638,84.588
			c-10.62,19.642-22.256,39.171-33.506,58.054c-5.439,9.135-10.878,18.27-16.22,27.437c-1.13,1.84-1.259,4.164-0.323,6.504
			c0.42,1.275,1.033,2.324,1.856,3.147c15.155,15.349,34.862,25.162,53.89,33.506c23.015,10.152,49.064,18.109,77.454,23.661
			c21.821,4.309,41.511,6.407,60.217,6.407c6.472,0,12.944-0.258,19.384-0.807c25.129-2.147,44.319-8.538,58.732-19.577
			c2.502-0.113,4.551-1.194,5.988-2.873c1.436-1.711,2.098-3.825,1.888-5.972c-1.921-20.788-2.405-42.237-1.453-63.784l-0.032,0.226
			c2.098-39.574,9.07-78.116,20.707-114.607c1.759-5.165,3.083-9.006,4.471-12.783c0.775-2.211,1.146-4.132,0.371-6.294
			c-0.565-1.582-1.63-3.002-3.018-3.986c-0.355-3.325-2.647-6.182-5.665-6.956c-33.07-8.28-66.979-15.333-99.775-22.144
			c-29.39-6.101-59.749-12.427-89.413-19.594C1762.062,1103.95,1761.32,1103.869,1760.432,1103.869"/>
		<path fill="#E19666" d="M1752.133,1109.474c-0.516,1.517-0.516,3.163-0.065,4.664c-2.082,7.957-4.487,16.027-7.069,24.097
			l-0.436,1.695c-6.085,17.85-13.654,36.217-22.934,55.601c6.133,4.616,12.46,8.909,18.964,12.928
			c-0.129-0.129-0.387-0.242-0.565-0.371c10.2,6.23,20.852,11.782,31.827,16.446c10.345,4.358,20.933,8.134,31.65,11.282
			c13.864,3.986,28.051,7.134,42.302,9.022c13.493,1.888,27.051,2.954,40.672,3.212c-0.097,0-0.194-0.016-0.323-0.064
			c14.574,0.194,29.132-0.5,43.561-2.26c3.47-0.42,6.924-0.888,10.378-1.404c3.551-23.37,8.861-46.24,15.849-68.335
			c1.775-5.165,3.099-9.006,4.487-12.799c0.872-2.26,1.259-4.212,0.371-6.488c-0.565-1.695-1.63-3.147-3.083-4.099
			c-0.194-3.212-2.582-6.182-5.746-6.989c-32.65-8.199-67.076-15.381-97.467-21.756l-2.324-0.5l-1.775-0.323
			c-31.327-6.488-59.636-12.411-87.622-19.158c-0.694-0.258-1.453-0.387-2.34-0.387
			C1756.41,1103.487,1753.263,1105.827,1752.133,1109.474 M1739.707,1207.894c0.128,0.065,0.192,0.129,0.321,0.194
			C1739.899,1208.023,1739.835,1207.958,1739.707,1207.894"/>
		<path fill="#F5C09B" d="M1669.221,325.1c-1.21,0-2.34,0.29-3.422,0.904c-0.968,0.452-1.969,1.194-2.744,2.05
			c-3.26,0.145-6.327,2.485-7.231,5.552c-16.253,55.31-36.007,110.46-55.084,163.769l-0.968,2.663
			c-5.036,14.058-10.087,28.115-15.058,42.173c-3.163-3.292-6.908-6.182-10.846-8.651c-5.213-3.341-10.749-5.988-16.446-7.908
			c-6.036-2.13-12.508-3.212-19.271-3.212c-4.148,0-8.037,0.371-11.572,1.13c-9.006,1.63-18.157,5.843-27.922,12.896
			c-7.941,5.584-15.365,13.202-23.37,23.919c-6.617,8.909-12.46,19.271-18.415,32.634c-4.971,11.104-9.119,23.709-12.315,37.476
			c-6.488,27.792-7.569,54.794-3.212,80.262c3.083,18.173,9.7,35.136,19.125,49.048c12.492,18.415,31.166,32.005,52.599,38.267
			c-1.808,9.587-3.196,19.497-4.325,29.39c-2.146,18.835-2.711,38.057-1.711,57.15c1.824,35.636,9.974,69.707,24.226,101.244
			c13.735,30.359,34.022,58.377,60.298,83.264c12.636,12.056,27.147,23.677,43.141,34.506c14.171,9.619,30.343,18.883,50.921,29.132
			c36.814,18.48,74.726,33.328,112.671,44.142c41.689,11.911,82.441,18.302,121.16,18.996l6.424,0.065
			c17.495,0,35.459-1.404,53.374-4.164c18.625-2.905,37.944-8.07,57.409-15.333c17.899-6.73,35.394-15.865,53.487-27.954
			c16.769-11.233,32.957-25.194,49.516-42.689c30.439-32.102,54.875-69.691,72.596-111.783l2.146-5.294l1.08-2.647
			c3.52,2.13,7.926,4.035,13.22,5.891c6.311,2.227,13.606,3.906,22.289,5.116c4.229,0.5,8.456,0.759,12.75,0.759
			c9.537,0,19.384-1.227,29.293-3.664c26.388-6.569,52.26-22.079,74.775-44.868c21.579-21.821,37.928-48.516,47.273-77.164
			c9.554-29.342,10.087-59.604,1.515-85.217c-5.084-15.155-13.33-28.971-24.498-41.027c-11.606-12.557-26.856-22.127-44.142-27.728
			c-9.942-3.276-20.707-4.923-32.023-4.923c-5.566,0-11.716,0.468-18.238,1.388c-8.907,1.388-17.867,4.099-26.581,8.086
			c2.599-4.196,4.616-8.812,6.521-13.477c3.292-8.36,6.214-17.786,8.893-28.841c4.356-17.721,6.617-36.476,6.747-55.698
			c0.323-36.314-7.86-73.71-23.661-108.135c-7.618-16.414-17.382-32.392-29.019-47.499c-10.733-14.009-23.983-27.405-39.348-39.8
			c-14.011-11.233-30.907-21.546-53.182-32.505c-19.206-9.474-39.831-17.608-61.313-24.209
			c-28.696-8.941-60.411-15.478-99.823-20.562c-34.894-4.406-70.272-6.407-103.52-8.07l-31.02-1.388
			c-58.296-2.518-118.562-5.116-177.213-16.398c-0.355-0.113-1.678-0.371-3.02-0.629
			C1670.931,325.246,1670.011,325.1,1669.221,325.1"/>
		<path fill="#E19666" d="M1803.673,677.962c-1.888,5.73-4.277,11.282-6.859,16.705c0.129-0.323,0.307-0.629,0.436-1.017
			c-10.588,21.821-24.209,42.124-37.008,62.67c-6.617,10.652-12.992,21.433-18.98,32.473c-5.423,9.894-10.394,20.175-13.993,30.956
			c-1.695,4.858-2.776,9.894-3.648,14.945c-0.694,4.164-0.952,8.441-0.646,12.67c0.194,2.389,0.452,4.793,0.952,7.182
			c0.5,2.276,1.388,4.535,2.276,6.746c1.566,3.97,4.213,7.699,7.118,10.781c7.247,7.699,17.528,11.911,27.615,14.251
			c16.14,3.599,32.715,2.97,48.984,1.194c1.517-0.307,2.905-1.001,4.035-2.082c1.775-1.566,2.905-3.841,2.97-6.23
			c0.194-4.616-3.664-9.409-8.522-9.28c-13.396,0.307-26.921,0.258-40.139-2.066c-4.616-0.968-9.087-2.276-13.412-4.132
			c-2.356-1.259-4.6-2.647-6.682-4.277c-1.243-1.178-2.389-2.453-3.47-3.841c-0.872-1.453-1.646-2.97-2.292-4.568
			c-0.759-2.389-1.259-4.826-1.533-7.311c-0.226-4.648,0.161-9.264,0.936-13.864c3.099-15.155,9.119-29.665,15.704-43.561
			c-0.065,0.113-0.129,0.226-0.178,0.339c0.097-0.194,0.194-0.371,0.274-0.565c0.178-0.339,0.339-0.678,0.484-1.001
			c-0.081,0.161-0.145,0.323-0.21,0.468c9.135-18.77,19.626-36.831,29.6-55.133c4.729-8.635,9.393-17.286,13.735-26.098
			c3.841-7.763,7.44-15.639,10.087-23.903c0.694-2.082-0.5-4.342-2.582-5.036c-0.403-0.145-0.823-0.21-1.227-0.21
			C1805.804,675.17,1804.19,676.284,1803.673,677.962 M1741.81,829.949l-0.242,1.194L1741.81,829.949z M1757.611,786.082
			c-0.032,0.081-0.065,0.145-0.097,0.226c0.113-0.242,0.242-0.5,0.371-0.759C1757.788,785.743,1757.708,785.904,1757.611,786.082"/>
		<path fill="#E19666" d="M2276.569,795.899c-3.47,3.083-3.97,8.828-0.694,12.234c2.582,2.744,5.003,5.617,7.182,8.635
			c2.13,3.405,3.938,6.94,5.439,10.684c1.662,4.955,2.679,10.007,3.228,15.203c0.436,7.085-0.032,14.074-1.114,21.111
			c-2.05,10.313-5.504,20.207-9.926,29.697c-4.422,8.861-9.684,17.221-16.027,24.871c0.307-0.387,0.629-0.759,1-1.13
			c-2.389,2.76-4.906,5.423-7.569,7.941c-2.389,2.26-2.695,5.988-0.5,8.506c2.147,2.405,6.117,2.711,8.522,0.452
			c18.964-17.915,32.78-41.737,39.397-66.963c3.212-12.476,4.099-25.404,1.824-38.138c-1.13-6.44-3.583-12.734-6.746-18.415
			c-1.695-2.905-3.777-5.665-5.923-8.312c-2.211-2.663-4.923-4.923-7.569-7.134c-1.323-0.888-2.776-1.323-4.406-1.388
			c-0.161,0-0.307-0.016-0.436-0.016C2280.184,793.737,2278.102,794.544,2276.569,795.899"/>
		<path fill="#E19666" d="M2316.713,784.986c-4.406,1.194-8.505,3.212-12.234,5.859c-4.342,3.034-7.812,6.875-10.781,11.282
			c-1.888,2.776-1.517,6.633,0.694,9.087c2.582,2.905,7.699,3.47,10.539,0.629c2.146-2.227,4.487-4.164,6.972-6.004
			c2.889-1.84,5.907-3.389,9.087-4.68c3.066-1.001,6.149-1.727,9.377-2.195c4.019-0.21,8.005-0.016,11.976,0.581
			c3.857,0.807,7.585,1.953,11.201,3.518c3.664,1.84,6.972,4.003,10.055,6.601c2.033,1.921,3.857,3.938,5.568,6.181
			c1.307,2.066,2.469,4.164,3.535,6.343c1.13,2.518,4.406,3.47,6.811,2.195c2.518-1.259,3.341-4.277,2.195-6.746
			c-7.44-16.01-21.74-28.357-38.896-32.78c-4.164-1.081-8.457-1.614-12.767-1.614
			C2325.558,783.243,2321.071,783.824,2316.713,784.986 M2353.705,803.127c0.307,0.129,0.597,0.258,0.904,0.387
			C2354.302,803.401,2354.012,803.272,2353.705,803.127"/>
		<path fill="#E19666" d="M1496.919,573.113c-1.194,3.712,0.952,7.634,4.6,8.893c1.969,0.759,3.89,1.517,5.859,2.356
			c4.196,2.147,8.102,4.664,11.798,7.731c-0.032-0.048-0.081-0.081-0.113-0.129c3.438,3.196,6.504,6.601,9.28,10.362
			c2.695,4.18,4.874,8.554,6.65,13.218c1.63,5.213,2.744,10.491,3.357,15.93c0.258,3.873,0.307,7.731,0.242,11.62
			c0,4.729,3.47,8.828,8.263,9.022c2.26,0.113,4.471-0.694,6.117-2.147c1.953-1.711,2.453-3.664,2.889-6.052
			c2.905-16.14-1.566-32.796-10.652-46.159c-4.406-6.617-9.829-12.04-16.01-16.947c-6.811-5.487-15.139-9.345-23.322-12.234
			c-0.71-0.258-1.453-0.387-2.179-0.387C1500.712,568.19,1497.887,570.224,1496.919,573.113"/>
		<path fill="#5A4737" d="M1723.731,504.42c-13.669,0.387-27.097,3.034-39.831,7.763c-12.363,4.535-23.516,10.717-33.926,18.722
			c-11.217,8.57-20.434,19.045-29.003,30.197c-1.824,2.405-2.017,6.44-1.323,9.2c0.823,3.099,2.841,5.81,5.617,7.44
			c2.776,1.646,6.117,2.082,9.2,1.275c3.341-0.872,5.278-2.841,7.327-5.407c-0.097,0.113-0.178,0.242-0.258,0.355
			c4.406-5.407,9.329-10.233,14.782-14.59c5.375-3.76,10.993-6.875,16.964-9.49c7.037-2.599,14.203-4.374,21.643-5.439
			c21.272-1.937,42.689,0.323,63.929,1.904c8.263,0.629,16.01-6.181,18.092-13.799c2.645-9.845-3.341-20.174-13.17-22.886
			c-12.009-3.309-24.274-5.294-36.768-5.294C1725.911,504.371,1724.83,504.387,1723.731,504.42 M1656.107,559.52
			c-0.436,0.339-0.889,0.646-1.34,0.952C1655.203,560.15,1655.655,559.843,1656.107,559.52"/>
		<path fill="#5A4737" d="M2003.204,587.227c-5.552,2.34-9.716,7.053-10.717,13.105c-1.13,7.198,2.776,15.704,9.829,18.351
			c11.685,4.325,24.209,6.198,36.185,9.539c10.701,3.518,20.981,8.005,30.778,13.573c5.875,3.793,11.265,7.973,16.269,12.783
			c5.697,6.165,10.717,12.831,14.897,20.094c2.889,5.697,5.1,11.572,6.714,17.786c1.388,5.165,8.134,7.424,12.734,5.665
			c5.423-2.082,7.005-7.505,5.681-12.734c-6.682-25.727-20.11-49.807-38.138-69.287c-10.152-10.975-21.95-19.803-35.62-25.791
			c-9.07-3.97-19.48-6.617-29.729-6.617C2015.599,583.692,2009.176,584.758,2003.204,587.227"/>
		<path fill="#5A4737" d="M1667.14,735.266c20.334,5.068,42.254-12.524,48.918-39.284c6.682-26.743-4.388-52.583-24.724-57.651
			c-20.32-5.068-42.237,12.524-48.919,39.268C1635.749,704.359,1646.82,730.198,1667.14,735.266"/>
		<path fill="#5A4737" d="M1980.162,805.231c20.336,5.068,42.254-12.524,48.919-39.284c6.682-26.743-4.39-52.583-24.726-57.651
			c-20.32-5.084-42.237,12.524-48.919,39.268C1948.77,774.308,1959.842,800.163,1980.162,805.231"/>
		<path fill="#5A4737" d="M1892.89,901.961c-0.71,4.955-1.808,9.861-3.292,14.655c-2.195,6.068-5.003,11.701-8.473,17.092
			c-3.712,5.229-7.908,9.926-12.637,14.235c-5.391,4.519-11.185,8.36-17.431,11.604c-6.94,3.325-14.138,5.794-21.595,7.505
			c-7.795,1.533-15.655,2.114-23.596,1.792c-6.553-0.516-12.992-1.679-19.335-3.664c-5.391-1.904-10.491-4.438-15.316-7.553
			c0.016,0.016,0.048,0.032,0.064,0.048c-3.325-2.389-6.391-5.052-9.216-8.005c-3.196-3.664-5.875-7.634-8.07-11.943
			c-1.937-4.261-3.438-8.667-4.551-13.267c-1.13-6.036-1.549-12.04-1.485-18.222c0.065-4.406-4.551-7.747-8.651-7.424
			c-2.066,0.177-4.083,1.13-5.471,2.695c-1.517,1.711-1.953,3.728-1.953,5.939c-0.194,11.653,1.63,23.322,6.165,34.038
			c4.035,9.522,10.216,17.899,17.98,24.71c15.817,13.945,37.444,19.238,58.054,18.851c10.539-0.178,21.127-2.324,31.149-5.665
			c10.523-3.47,20.61-8.893,29.439-15.704s16.075-15.074,22.063-24.516c6.44-10.216,10.281-22.192,11.992-34.119
			c0.629-4.342-1.905-8.57-6.375-9.458c-0.484-0.097-0.984-0.129-1.469-0.129C1897.151,895.457,1893.439,898.12,1892.89,901.961
			 M1889.985,915.518c-0.129,0.371-0.258,0.726-0.387,1.098C1889.727,916.244,1889.856,915.889,1889.985,915.518 M1889.581,916.632
			c-0.097,0.323-0.194,0.646-0.291,0.968C1889.371,917.277,1889.484,916.955,1889.581,916.632"/>
		<path fill="#5A4737" d="M1646.811,0c-3.084,0-6.248,0.065-9.411,0.323c-7.311,0.597-15.349,2.211-24.548,4.906
			c-6.73,2.017-13.67,4.955-21.224,8.974c-11.136,6.004-21.094,14.865-28.729,25.646c-6.956,9.748-12.202,21.53-15.607,34.975
			c-2.857,11.362-4.083,24.096-3.841,40.075c0.145,12.67,1.711,26.582,4.729,42.528c4.971,25.969,13.089,52.631,24.791,81.489
			c11.281,27.744,25.081,54.116,40.978,78.39c18.964,28.841,42.576,57.344,70.191,84.701c26.243,26.049,56.295,50.598,89.3,72.951
			c32.344,21.869,66.705,40.785,102.164,56.263c66.77,29.035,133.329,43.771,197.791,43.771c7.263,0,14.526-0.194,21.805-0.581
			c22.014-1.178,44.384-4.568,66.528-10.087c-3.113,18.916,4.051,39.332,18.528,53.099c3.906,3.664,8.554,6.714,13.477,8.861
			c4.858,2.163,10.039,3.341,15.817,3.599l1.985-0.129l-5.391,7.069c-11.508,15.349-20.094,27.389-27.857,39.026
			c-10.344,15.43-18.867,29.729-26.065,43.706c-8.086,15.801-13.686,30.149-17.156,43.851c-3.615,14.445-4.116,27.954-1.517,40.172
			c1.114,5.358,3.357,10.927,6.7,16.559c3.097,5.165,7.229,9.716,12.652,13.928c4.537,3.438,9.91,5.1,13.622,5.891
			c2.469,0.516,5.037,0.759,7.779,0.759c3.163,0,6.311-0.339,9.49-0.823c5.407-0.872,10.62-2.921,15.93-5.116
			c6.746-2.841,13.057-6.795,17.237-9.539c11.152-7.231,22.565-16.527,35.895-29.261c9.458-9.006,19.125-19.271,30.471-32.295
			c6.989-8.07,13.67-16.333,20.223-24.71c15.365-19.723,29.761-42.447,44.029-69.513c1.259-2.389,1.436-5.148,0.452-7.569
			l15.091-18.577c24.581-31.053,50-63.17,71.466-97.338c11.959-19.045,22.321-38.945,30.827-59.168
			c8.766-20.949,14.865-40.365,18.674-59.362c4.261-21.369,5.197-41.85,2.841-60.879c-2.534-20.465-9.264-39.397-20.062-56.247
			c-9.474-14.816-22.725-28.212-39.397-39.833c-13.089-9.167-29.213-16.947-49.291-23.774c-19.69-6.746-39.929-10.781-57.134-13.816
			c-12.411-2.179-24.936-3.986-37.428-5.81c-6.779-1.001-13.557-1.985-20.32-3.018c-48.532-7.505-91.366-19.077-130.957-35.394
			c-17.189-7.408-32.085-14.719-46.272-22.725c-16.963-9.603-31.295-18.948-43.803-28.535l-1.727-1.081l-0.081,0.145
			c-12.379-10.507-24.29-23.209-35.798-35.491l-2.774-2.97c-6.635-7.182-13.317-14.3-20.321-21.191
			c-6.972-6.924-14.671-13.622-22.838-19.932c-14.284-10.959-29.648-17.963-44.448-20.255c-3.535-0.581-7.069-0.888-10.555-0.888
			c-3.147,0-6.327,0.242-9.49,0.759c-6.117,0.936-12.153,2.97-18.448,6.198c-9.571,4.906-18.431,13.38-26.34,25.146
			c-3.196,4.648-5.988,9.894-9.103,17.043c-2.873,6.746-5.294,13.864-7.198,21.143c-3.162,11.943-4.906,25.065-5.165,38.993
			c-4.503-8.522-9.538-16.914-14.897-25.049c-9.974-15.349-21.143-30.213-33.183-44.142c-29.326-34.022-58.587-56.198-89.462-67.819
			C1676.264,2.695,1661.593,0,1646.811,0"/>
		<path fill="#4F4973" d="M1654.248,4819.346c-1.033,0-2.066,0.193-3.018,0.581c-2.034,0.823-3.761,2.614-4.616,4.793
			c-0.775,2.033-0.759,4.148,0.113,5.956c-13.202-1.582-27.405-2.502-41.785-2.502c-18.496,0-37.767,1.549-57.28,4.6
			c-0.081-0.565-0.403-1.13-0.839-1.695c-1.549-2.018-3.922-3.196-6.536-3.196c-1.808,0-3.551,0.565-5.036,1.646
			c-3.906,2.776-7.876,5.423-11.895,7.876l-1.888,0.419l-1.937,0.436c-2.26,0.533-4.051,1.275-5.439,3.083
			c-0.452,0.565-0.823,1.21-1.21,2.05c-27.276,14.477-56.537,23.128-78.955,29.035c-14.768,3.841-30.133,7.312-45.449,10.781
			l-18.028,4.1l-12.427,2.986c-8.247,2.001-16.511,4.002-24.839,5.713c-27.647,5.601-54.616,11.33-80.521,19.997
			c-14.51,4.858-26.711,10.394-37.282,16.914c-10.781,6.73-17.85,14.526-21.014,23.161c-1.356,3.776-1.856,7.375-1.517,10.652
			c0.339,3.196,1.759,5.827,3.228,8.215c3.083,4.842,8.893,8.038,13.008,10.022c6.633,3.212,13.961,5.036,20.336,6.488
			c9.458,2.275,19.077,3.519,26.421,4.374c24.161,2.841,48.128,3.454,70.449,3.712l13.105,0.064
			c47.192,0,97.193-2.534,152.842-7.763c27.099-2.518,50.969-5.391,73.016-8.764c16.753-2.55,34.652-5.568,51.97-10.539
			c2.582-0.759,5.165-1.566,7.715-2.518c4.342-1.646,8.457-4.019,12.427-6.327c14.526-8.425,26.421-21.95,33.474-38.089
			c2.824-6.408,4.826-13.864,6.133-22.854c1.13-7.714,1.194-16.397,0.258-26.582c-0.71-7.279-2.26-14.994-5.052-25.049
			c-2.292-8.376-5.633-17.108-10.216-26.711C1660.494,4821.331,1657.46,4819.346,1654.248,4819.346"/>
		<path fill="#EDE9C7" d="M1660.489,4936.2c-21.756,6.746-43.819,12.427-66.14,16.962c-46.079,9.2-92.867,14.123-139.769,16.576
			c-51.824,2.711-103.649,2.647-155.473,2.583c-34.845-0.049-69.691-0.097-104.52,0.694c0.387,0.694,0.791,1.372,1.194,2.018
			c2.389,3.792,6.682,7.133,13.17,10.151c6.633,3.276,13.686,5.052,20.368,6.553c8.764,2.082,17.156,3.292,26.485,4.487
			c24.274,2.841,48.225,3.47,70.482,3.712l13.105,0.064c46.159,0,96.144-2.583,152.826-7.747c27.179-2.583,51.066-5.487,73.08-8.764
			c16.705-2.647,34.474-5.617,52.002-10.717c2.582-0.759,5.229-1.582,7.763-2.534c4.535-1.695,8.828-4.148,12.476-6.294
			c12.056-6.973,22.24-17.383,29.358-29.778C1664.782,4934.86,1662.636,4935.539,1660.489,4936.2"/>
		<path fill="#4F4973" d="M479.634,4479.547c-1.017-0.178-2.066-0.161-3.067,0.064c-2.147,0.468-4.148,1.937-5.342,3.954
			c-1.146,1.856-1.453,3.955-0.904,5.875c-12.766-3.744-26.614-7.053-40.769-9.474c-18.238-3.115-37.492-4.81-57.231-5.084
			c0.016-0.581-0.226-1.194-0.565-1.824c-1.178-2.259-3.341-3.792-5.891-4.229c-1.775-0.307-3.599-0.048-5.245,0.759
			c-4.325,2.082-8.667,4.019-13.073,5.762l-1.904,0.097l-1.985,0.113c-2.308,0.161-4.212,0.565-5.875,2.13
			c-0.533,0.484-1.033,1.049-1.549,1.808c-29.31,9.684-59.604,13.299-82.716,15.365c-15.187,1.292-30.907,2.13-46.595,2.986
			l-18.48,1.001l-12.734,0.855c-8.473,0.581-16.963,1.162-25.452,1.469c-28.196,0.872-55.746,2.001-82.732,6.182
			c-15.139,2.34-28.083,5.746-39.607,10.394c-11.75,4.842-20.029,11.33-24.597,19.303c-1.969,3.502-3.083,6.956-3.292,10.249
			c-0.21,3.196,0.742,6.037,1.808,8.635c2.211,5.31,7.408,9.426,11.136,12.057c6.004,4.309,12.928,7.343,18.948,9.845
			c8.925,3.809,18.238,6.666,25.323,8.731c23.322,6.875,46.853,11.523,68.819,15.494l12.912,2.26
			c46.514,7.957,96.224,13.848,151.971,18.06c27.131,2.066,51.163,3.244,73.435,3.615c16.947,0.323,35.104,0.339,53.019-1.646
			c2.679-0.323,5.374-0.678,8.021-1.21c4.568-0.872,9.006-2.534,13.315-4.116c15.736-5.891,29.745-17.221,39.413-31.924
			c3.841-5.842,7.085-12.879,9.894-21.514c2.389-7.408,3.922-15.962,4.697-26.163c0.533-7.279,0.291-15.155-0.759-25.549
			c-0.855-8.619-2.679-17.802-5.6-28.019C485.444,4482.565,482.797,4480.08,479.634,4479.547"/>
		<path fill="#EDE9C7" d="M466.158,4595.803c-22.563,3.002-45.288,4.874-68.045,5.601c-46.982,1.339-93.916-1.679-140.576-7.15
			c-51.534-6.036-102.6-14.8-153.681-23.58c-34.345-5.907-68.706-11.798-103.164-16.898c0.258,0.759,0.549,1.501,0.839,2.211
			c1.727,4.132,5.391,8.15,11.282,12.234c5.972,4.341,12.637,7.263,18.98,9.877c8.296,3.518,16.366,6.117,25.339,8.86
			c23.451,6.875,46.966,11.524,68.868,15.51l12.928,2.276c45.481,7.747,95.191,13.589,151.938,18.028
			c27.211,2.018,51.259,3.18,73.5,3.631c16.914,0.21,34.942,0.274,53.067-1.824c2.679-0.291,5.423-0.678,8.07-1.178
			c4.761-0.92,9.409-2.615,13.38-4.116c13.041-4.858,24.839-13.412,33.942-24.435
			C470.596,4595.189,468.385,4595.496,466.158,4595.803"/>
		<path fill="#B6906D" d="M1166.733,2576.648c-19.125,0-37.88,1.291-55.746,3.841c-3.906,0.565-7.828,1.259-11.685,2.018
			c-1.598,0.323-2.937,1.097-3.986,2.26c-0.42-0.226-1.049-0.307-1.775-0.307c-1.356,0-2.744,0.387-4.051,1.097
			c-82.748,50.017-162.332,112.848-236.51,186.703c-67.56,67.238-130.553,143.562-192.626,233.282
			c-54.391,78.665-104.924,164.011-154.472,260.961c-49.387,96.58-91.996,197.178-126.615,299.051
			c-36.637,107.716-64.155,217.046-81.763,324.89c-8.845,54.229-15.171,109.168-18.787,163.317
			c-3.502,52.744-4.099,106.812-1.84,165.27c3.922,100.211,15.785,180.505,37.266,252.714c0.371,1.194,1.001,2.292,1.808,3.147
			c0.694,1.84,2.066,3.39,3.809,4.326c10.475,5.375,22.45,9.99,36.669,14.138c14.187,4.1,29.729,6.972,46.175,8.57
			c7.424,0.71,14.881,1.081,22.321,1.081c7.408,0,14.735-0.387,21.788-1.146c6.875-0.791,14.041-2.146,21.272-4.035
			c5.843-1.533,11.83-3.793,18.883-7.134c0.678-0.355,1.21-0.823,1.662-1.291c0.565-0.016,1.21-0.081,1.84-0.274
			c2.066-0.581,3.857-2.018,4.939-3.922c1.114-1.953,1.13-3.825,0.775-6.214l-0.307-2.034l-0.323-2.001
			c-4.923-33.91-4.987-72.096-0.129-116.157c9.474-80.795,32.554-160.396,54.875-237.365l0.807-2.744
			c22.499-77.567,48.274-153.149,76.599-224.68c31.375-78.923,66.899-154.779,105.392-225.115
			c40.22-73.564,85.395-143.869,134.265-208.976c43.399-57.473,90.204-111.638,139.382-161.445
			c24.516-24.807,51.179-49.936,79.245-74.694c24.581-21.643,51.098-43.448,81.085-66.657c30.698-23.806,62.17-47.208,92.625-69.836
			c39.849-29.616,81.037-60.265,120.531-91.738c85.33-68.061,144.159-125.824,190.722-187.268
			c26.646-35.184,48.742-71.708,65.64-108.539c0.759-1.695,1.42-3.744,0.71-6.23c-0.565-2.066-1.937-3.809-3.857-4.939
			c-1.162-0.678-2.566-1.033-4.051-1.033c-41.059-21.337-85.863-38.687-133.862-51.501c-13.67-3.615-27.502-6.714-41.318-9.829
			c-7.408-1.646-14.8-3.325-22.176-5.052l-25.549-6.068c-12.331-2.938-24.645-5.875-36.992-8.748
			c-35.943-8.312-83.426-18.641-131.974-24.839C1211.634,2578.246,1188.522,2576.648,1166.733,2576.648"/>
		<path fill="#D1A57F" d="M1642.758,2643.54c-16.398,0-32.78,0.323-49.194,0.952c-41.221,1.646-80.585,5.6-117.028,11.717
			c-23.241,3.89-46.143,9.038-68.045,15.268c-21.466,6.117-41.495,13.444-59.523,21.821c-0.5-0.177-1.178-0.323-1.953-0.323
			c-3.341,0-7.295,2.114-8.037,6.052c-25.355,135.411-43.803,274.583-54.859,413.658c-10.684,133.7-14.703,273.324-11.911,415.046
			c2.582,132.958,11.685,273.163,27.05,416.677c6.52,60.895,14.735,125.921,25.081,198.792
			c9.297,65.381,18.786,124.888,29.003,181.942c17.818,99.258,37.718,187.042,60.846,268.402
			c12.315,43.318,26.162,86.024,41.172,126.986c7.376,19.965,15.429,40.446,23.951,60.911c4.035,9.522,8.07,18.932,12.314,28.325
			c4.906,11.152,10.329,21.999,15.817,32.844c0.662,1.275,1.743,2.34,3.099,3.083c0.71,0.727,1.743,1.324,2.857,1.663
			c28.535,8.812,54.261,13.751,78.648,15.139c3.583,0.194,7.166,0.307,10.717,0.307c9.555,0,19.384-0.726,29.229-2.13
			c12.395-1.743,25.129-5.423,37.88-10.926c2.453-0.307,4.39-1.178,5.843-2.615c1.372-1.453,2.647-3.793,2.373-5.81
			c-31.004-280.184-11.556-567.34,14.074-835.887c6.569-68.803,13.783-136.719,21.498-201.858
			c3.97-33.667,8.183-67.334,12.605-101.002l0.823-6.052l0.807-6.052l0.581-4.019c0.387-1.42,0.565-2.744,0.5-4.083l0.694-4.971
			l0.694-5.019l1.63-12.137l1.646-12.137c2.453-17.528,4.971-35.055,7.57-52.583c4.906-33.78,10.087-67.512,15.51-101.179
			c10.862-68.045,22.789-135.96,35.426-201.875c40.204-210.961,89.801-413.287,147.468-601.378c1.339-1.888,2.066-3.502,2.26-5.261
			c0.258-2.163-0.404-4.39-1.808-6.149c-1.372-1.695-3.292-2.776-5.391-2.97c-1.259-0.129-2.469-0.129-3.68-0.129
			c-2.469-0.274-5.132-1.001-7.779-1.711l-2.905-0.742l-5.6-1.34l-5.617-1.323c-8.506-1.888-17.027-3.648-25.533-5.358
			c-16.882-3.325-34.135-6.278-52.793-9.006c-36.847-5.439-75.889-9.313-116.012-11.54
			C1690.531,2644.218,1666.306,2643.54,1642.758,2643.54"/>
		<path fill="#429870" d="M2011.179,1306.41c-12.347,0-25.21,2.34-37.203,6.746c-6.343,2.34-12.734,5.261-18.93,8.651
			c-6.52,3.567-12.363,7.973-17.237,11.814c-5.875,4.793-11.395,10.572-16.398,17.108c-9.556,1.598-20.144,2.599-32.249,3.034
			c-3.275,0.064-6.551,0.081-9.827,0.081c-6.407,0-12.831-0.097-19.238-0.21l-3.633-0.065c-7.729-0.177-15.492-0.339-23.239-0.339
			c-4.519,0-9.022,0.065-13.525,0.21c-21.901,0.726-44.4,3.841-66.931,9.264c-20.191,4.89-40.591,11.863-62.363,21.32
			c-18.302,8.005-37.347,18.205-58.217,31.214c-31.406,19.577-63.201,44.917-100.08,79.778
			c-28.422,26.824-56.23,56.311-84.991,90.156c-52.066,61.427-100.647,130.569-148.484,211.364
			c-42.189,71.305-81.957,149.292-118.174,231.829c-16.446,37.46-32.457,76.695-47.596,116.641
			c-7.182,18.98-14.122,38.009-20.869,57.118l-5.843,16.914c-3.631,10.588-7.247,21.143-11.12,31.634
			c-6.262,17.027-12.783,33.942-19.287,50.872c-6.504,16.93-13.025,33.861-19.287,50.888
			c-11.266,30.649-25.517,71.176-35.943,112.865c-5.923,23.758-9.651,43.529-11.733,62.186c-1.533,1.227-2.534,3.034-2.76,5.116
			c-0.759,2.582-1.097,3.615-1.21,4.664c-0.694,6.181-1.211,12.347-1.453,18.593c-0.904,13.638-1.34,28.26,1.453,42.915
			c0.452,3.196,1.34,5.1,2.824,6.52c62.606,60.637,146.661,90.931,228.166,114.656c77.761,22.692,154.666,39.994,228.553,51.388
			c67.431,10.41,128.6,15.478,187.026,15.478c20.449,0,40.736-0.646,60.328-1.937c40.673-2.583,80.183-8.425,117.498-17.334
			c37.555-8.909,73.45-21.902,106.699-38.59c4.923-2.469,9.781-5.052,14.51-7.699c3.26-0.29,6.02-2.615,7.132-6.02
			c26.551-82.554,50.436-172.839,73.017-275.971c20.239-92.464,35.895-183.023,46.531-269.144
			c10.475-85.266,15.429-162.671,15.123-236.688c-0.05-11.298-0.177-22.515-0.5-33.796c10.927,21.208,23.901,46.353,35.055,72.499
			c8.344,19.932,16.091,42.124,24.403,69.836c5.294,17.786,10.087,35.749,14.879,53.713l5.231,19.416
			c8.021,29.455,14.897,51.792,22.257,72.451c5.939,16.479,11.992,31.876,17.963,45.788c11.346,26.324,27.792,59.83,54.52,85.282
			c11.814,11.378,25.469,19.787,40.591,25.017c6.746,2.243,14.332,3.664,23.241,4.277c2.082,0.194,4.164,0.258,6.262,0.258
			c6.181,0,12.799-0.678,20.271-2.082c14.703-2.808,29.665-9.942,43.238-20.643c12.024-9.377,22.805-21.32,32.939-36.476
			c8.394-12.573,15.802-27.389,22.662-45.304c5.455-14.365,9.571-29.81,12.234-45.917c12.218-74.226,10.636-154.714-4.844-246.081
			c-13.846-81.973-39.008-165.367-74.856-247.856c-16.525-38.138-35.667-75.727-56.874-111.735
			c-15.994-27.115-34.297-54.455-55.988-83.555c-19.093-25.63-39.058-50.146-59.345-72.822
			c-25.759-28.777-50.436-52.534-75.485-72.644c-29.164-23.37-56.394-39.268-83.2-48.58c-13.753-4.81-27.889-7.505-42.028-8.005
			C2013.632,1306.41,2012.436,1306.41,2011.179,1306.41"/>
		<path fill="#429870" d="M2447.587,2210.472c-1.017,6.504-2.534,12.799-4.422,19.109c0-0.016,0-0.032,0.016-0.048
			c-3.083,9.797-6.649,19.432-9.603,29.245c-0.629,1.888,0.258,4.471,1.388,5.988c1.259,1.759,3.163,2.889,5.229,3.276
			c2.082,0.371,4.293-0.194,6.004-1.388c1.953-1.388,2.647-3.083,3.276-5.229l0.323-1.049c-0.048,0.145-0.097,0.274-0.145,0.42
			c0.097-0.291,0.194-0.581,0.291-0.888c0.113-0.387,0.226-0.791,0.339-1.194c-0.081,0.307-0.162,0.613-0.242,0.904
			c4.955-15.413,11.023-30.423,13.493-46.482c0.694-4.358-2.276-8.586-6.617-9.28c-0.468-0.081-0.92-0.097-1.356-0.097
			C2451.703,2203.758,2448.201,2206.583,2447.587,2210.472 M2449.944,2259.908l-0.145,0.468l0.242-0.759L2449.944,2259.908z"/>
		<path fill="#429870" d="M2446.416,2214.535c-1.388,11.346-4.003,22.418-7.214,33.377c0.032-0.097,0.048-0.194,0.081-0.274
			c-0.048,0.145-0.097,0.307-0.145,0.468l-0.484,1.614c0.081-0.339,0.177-0.662,0.276-1.001c-2.358,7.327-4.811,14.59-7.265,21.853
			c-0.759,2.146-1.081,4.099-0.194,6.311c0.759,1.888,2.211,3.535,4.164,4.422c1.953,0.872,4.229,1.001,6.246,0.177
			c1.759-0.629,3.777-2.26,4.406-4.099c6.746-19.723,13.493-39.461,16.012-60.201c0.563-4.422-2.148-8.57-6.619-9.329
			c-0.42-0.065-0.839-0.097-1.241-0.097C2450.614,2207.756,2446.852,2210.548,2446.416,2214.535 M2438.929,2248.718
			c0.063-0.21,0.144-0.404,0.208-0.613c0.016-0.064,0.032-0.129,0.065-0.194C2439.104,2248.186,2439.008,2248.444,2438.929,2248.718
			"/>
		<path fill="#429870" d="M2451.267,2198.14c-2.389,19.287-8.263,37.702-13.864,56.23c-0.581,1.953,0.242,4.487,1.388,6.052
			c1.259,1.711,3.147,2.905,5.229,3.228c2.146,0.371,4.277-0.129,6.052-1.388c1.888-1.388,2.582-3.099,3.212-5.245
			c5.681-18.528,11.475-37.008,13.928-56.295c0.516-4.342-2.195-8.505-6.682-9.264c-0.404-0.065-0.823-0.113-1.227-0.113
			C2455.528,2191.345,2451.768,2194.154,2451.267,2198.14"/>
		<path fill="#429870" d="M2444.35,2223.348c-1.906,9.119-4.309,18.141-7.005,27.034c0.049-0.097,0.081-0.194,0.129-0.307
			c-0.195,0.597-0.371,1.178-0.565,1.775c-0.016,0.081-0.049,0.161-0.065,0.242c0-0.032,0.016-0.048,0.016-0.081
			c-1.582,5.035-3.197,10.055-4.874,15.091c-0.694,2.13-1.065,4.035-0.178,6.23c0.742,1.953,2.195,3.599,4.148,4.487
			c1.951,0.872,4.229,0.936,6.246,0.177c1.758-0.629,3.841-2.26,4.471-4.148c5.181-15.769,10.216-31.585,13.557-47.919
			c0.952-4.293-2.389-8.57-6.617-9.264c-0.436-0.064-0.873-0.097-1.275-0.097C2448.416,2216.57,2445.139,2219.41,2444.35,2223.348
			 M2436.861,2252.012c0.016-0.049,0.032-0.097,0.049-0.161c0.16-0.484,0.29-0.969,0.436-1.469
			C2437.168,2250.915,2437.022,2251.464,2436.861,2252.012"/>
		<path fill="#429870" d="M2445.625,2225.927c-0.775,6.472-2.195,12.734-3.954,18.98c-2.841,8.877-6.278,17.528-9.732,26.227
			c-1.63,4.035-0.242,8.764,3.922,10.652c3.841,1.824,9.07,0.194,10.717-3.906c6.424-16.01,12.799-32.102,14.994-49.306
			c0.517-4.406-2.195-8.57-6.682-9.329c-0.387-0.064-0.807-0.097-1.194-0.097C2449.902,2219.149,2446.141,2221.99,2445.625,2225.927
			"/>
		<path fill="#429870" d="M2447.658,2214.578c-1.323,7.311-2.808,14.493-4.906,21.643c-0.484,1.549-1.001,3.05-1.517,4.519
			c-0.759,2.146-1.081,4.164-0.258,6.311c0.759,1.953,2.276,3.519,4.164,4.406c3.712,1.775,9.264,0.258,10.717-3.906
			c3.535-9.894,5.923-19.981,7.747-30.326c0.759-4.342-2.324-8.57-6.682-9.264c-0.436-0.081-0.872-0.129-1.323-0.129
			C2451.758,2207.832,2448.336,2210.721,2447.658,2214.578"/>
		<path fill="#429870" d="M2447.848,2211.883c-1.081,9.135-3.228,17.996-5.794,26.84c-0.775,2.421-1.517,4.826-2.34,7.263
			c-0.694,2.146-1,4.035-0.194,6.246c0.759,1.953,2.276,3.599,4.164,4.471c1.953,0.888,4.229,0.952,6.246,0.194
			c1.759-0.694,3.841-2.276,4.471-4.164c4.035-12.541,7.828-25.081,9.393-38.202c0.517-4.342-2.146-8.506-6.617-9.264
			c-0.42-0.081-0.839-0.113-1.243-0.113C2452.108,2205.153,2448.348,2207.945,2447.848,2211.883"/>
		<path fill="#429870" d="M2448.43,2212.53c-1.452,8.958-3.131,17.85-5.616,26.566c-1.065,3.276-2.26,6.488-3.519,9.684
			c-1.712,4.035-0.194,8.764,3.906,10.652c3.84,1.84,9.005,0.129,10.717-3.906c5.358-12.992,8.199-26.598,10.458-40.349
			c0.693-4.342-2.324-8.57-6.682-9.264c-0.436-0.081-0.888-0.113-1.325-0.113C2452.578,2205.8,2449.108,2208.64,2448.43,2212.53"/>
		<path fill="#429870" d="M2441.07,2244.545c-1.888,1.388-2.582,3.083-3.212,5.229c-0.226,0.662-0.42,1.291-0.597,1.921
			c-4.584,14.235-10.975,27.647-18.383,40.64c-2.148,3.841,0.194,9.006,3.97,10.717c1.952,0.936,4.229,1,6.246,0.242
			c2.082-0.807,3.406-2.26,4.471-4.148c4.229-7.505,8.199-15.203,11.733-23.08c3.454-7.634,6.117-15.575,8.441-23.645
			c0.565-1.953-0.258-4.471-1.388-6.052c-1.259-1.695-3.147-2.905-5.229-3.212c-0.468-0.081-0.936-0.129-1.404-0.129
			C2444.056,2243.027,2442.442,2243.544,2441.07,2244.545 M2437.665,2250.468c-0.129,0.371-0.258,0.742-0.355,1.114
			C2437.407,2251.21,2437.52,2250.839,2437.665,2250.468"/>
		<path fill="#429870" d="M527.107,2433.031c-1.146,0-2.308,0.065-3.502,0.129c-6.892,0.387-13.477,1.743-19.755,4.051
			c-6.311,2.324-12.024,5.455-17.431,9.555c-3.986,2.921-7.65,6.972-10.652,11.685c-0.242-0.016-0.484-0.016-0.726-0.016
			c-2.486,0-4.212,0.726-5.6,1.937c-1.469,1.275-2.905,3.631-2.76,5.617c0.242,4.874,0.629,9.603,1.388,14.396
			c0.759,4.923,2.082,9.716,3.535,14.461c2.873,9.684,7.311,19.674,13.186,29.665c10.297,17.511,24.758,33.231,41.85,45.433
			c13.735,9.861,29.616,16.14,45.901,18.189c2.582,0.323,5.197,0.468,7.795,0.468c4.245,0,8.473-0.404,12.621-1.097
			c6.666-1.162,13.089-3.696,18.528-7.344c5.262-3.47,9.587-7.892,12.912-13.154c3.47-5.471,5.681-12.218,6.698-20.626
			c1.049-8.861-0.613-18.028-1.953-24.129c-2.05-8.974-5.713-18.319-10.91-27.776c-9.409-17.124-23.451-32.473-40.656-44.384
			c-7.489-5.197-16.091-9.474-25.581-12.75C544.086,2434.532,535.484,2433.031,527.107,2433.031"/>
		<path fill="#B68555" d="M769.406,1507.871c-54.213,5.988-102.325,16.462-146.951,32.021
			c-49.177,17.221-94.949,41.672-135.992,72.887c-2.082,1.517-3.163,3.083-3.599,5.1c-0.5,2.146-0.129,4.358,1.081,6.181
			c1.436,2.34,4.342,3.906,7.247,3.906c1.501,0,2.954-0.436,4.099-1.323c2.26,0.694,4.099,2.017,6.23,2.647
			c91.867,27.938,189.205,50.953,297.647,70.24c44.271,7.892,90.285,15.236,140.415,22.353l3.954-67.431l41.479-16.898l17.463-6.811
			c0.323,0.065,0.888,0.258,2.469,0.387l274.196-111.428c-85.976-8.393-165.835-13.589-242.611-15.736l-15.381-0.452
			c-37.767-1.001-76.792-2.13-115.124-2.13C853.187,1501.383,809.82,1503.465,769.406,1507.871"/>
		<path fill="#B68555" d="M1458.87,1540.781l-70.11,28.503l-243.159,98.661c-1.081,0.436-1.711,0.823-2.211,1.582
			c-0.194,0.5-0.307,1.065-0.371,2.518l-4.245,74.726c98.242,10.297,197.194,17.705,283.589,23.935l23.58,1.759
			c29.955,2.211,60.911,4.551,91.479,6.004c19.739,1.001,37.509,1.436,54.407,1.436l8.07-0.048
			c-7.553,11.911-14.3,26.098-20.804,43.173c-5.665,15.139-10.458,31.585-15.058,51.695c-7.957,35.249-11.927,70.046-15.01,102.454
			l-1.065,11.669c-1.34,14.687-2.663,28.68-3.986,42.544l82.473,8.134l29.875,3.099l25.097,2.711
			c0.436,0.629,0.888,1.065,1.194,1.323c0.452,0.177,0.952,0.242,2.582,0.436l237.817-97.79l69.029-28.422l0.065-0.065h0.065
			c4.664-98.419,4.229-197.517-9.087-295.5c-0.307-2.711-1.695-5.036-3.777-6.423c-1.388-2.582-4.229-4.358-7.053-4.358
			c-0.888,0-1.517,0.129-2.017,0.258l-2.647,0.952c-0.323-3.535-2.97-6.569-6.375-7.327c-10.023-2.13-21.127-3.97-34.991-5.6
			c-8.005-0.952-16.01-1.888-24.08-2.776l-16.011-1.888c-25.92-3.099-51.889-6.375-77.809-9.716
			c-51.437-6.682-102.89-13.864-154.262-21.062l-18.157-2.518c-60.443-8.489-122.177-17.189-184.04-25.194
			C1454.222,1540.023,1456.546,1540.41,1458.87,1540.781"/>
		<path fill="#B68555" d="M1824.534,2150.746l-156.861,64.494c-1.001,0.5-1.63,0.888-2.776,1.582
			c-0.694-0.323-1.259-0.452-1.888-0.452l-138.349-13.654c-3.131,27.244-6.181,54.536-8.925,81.812
			c-2.647,26.227-5.036,52.889-6.988,79.245c-1.582,22.644-3.406,49.048-4.099,75.146c-0.387,16.398-0.065,37.767,5.536,57.877
			c3.341,11.604,8.134,23.903,14.816,37.638c6.811,14.316,15.074,27.244,24.468,38.396c4.164,4.987,9.2,9.587,14.945,13.751
			c2.211,1.63,4.6,3.018,7.053,4.164c0.694,2.711,2.147,4.729,4.229,5.794c1.13,0.565,2.276,0.759,3.535,0.759
			c0.823,0,1.63-0.064,2.518-0.194c30.585-5.423,62.283-15.058,97.096-29.632c31.02-12.976,63.041-29.245,97.838-49.807
			c58.571-34.474,117.141-76.663,173.937-125.453c0.952-0.823,1.646-2.082,1.969-3.534c1.63-1.001,2.712-2.776,2.954-4.729
			c6.553-42.302,9.393-85.604,12.04-127.471c0.952-15.268,1.888-29.568,2.905-43.884c2.34-30.456,4.858-61.282,7.44-92.173
			c0.952-11.298,1.888-22.595,2.824-33.942L1824.534,2150.746z"/>
		<path fill="#B68555" d="M530.385,1587.987c-14.558,6.811-28.745,14.122-41.802,23.515c-1.759,1.323-3.147,2.518-3.841,4.729
			c-0.629,2.082-0.387,4.358,0.694,6.246c1.001,1.824,2.711,3.212,4.729,3.841c1.824,0.565,4.535,0.565,6.181-0.629
			c13.041-9.458,27.292-16.704,41.785-23.515c3.986-1.888,5.245-7.311,3.228-10.975c-1.517-2.744-4.212-4.099-7.053-4.099
			C533,1587.099,531.644,1587.406,530.385,1587.987"/>
		<path fill="#B68555" d="M528.966,1587.498c-14.558,7.053-29.197,14.058-43.383,21.934c-3.841,2.082-5.294,7.069-3.212,10.91
			c2.147,3.841,7.134,5.358,10.975,3.212c14.187-7.876,28.809-14.816,43.367-21.869c3.987-1.888,5.245-7.247,3.228-10.975
			c-1.517-2.711-4.229-4.099-7.069-4.099C531.565,1586.61,530.225,1586.9,528.966,1587.498"/>
		<path fill="#B68555" d="M556.108,1571.358c-23.515,12.04-46.724,24.71-69.723,37.638c-3.857,2.211-5.358,7.118-3.228,10.975
			c2.082,3.841,7.134,5.358,10.975,3.212c23.015-12.928,46.208-25.597,69.723-37.702c3.922-2.017,5.31-7.182,3.228-10.975
			c-1.469-2.663-4.229-4.099-7.069-4.099C558.691,1570.406,557.351,1570.729,556.108,1571.358"/>
		<path fill="#B68555" d="M569.001,1564.723c-26.227,12.169-52.712,24.08-76.34,40.979c-1.84,1.259-3.163,2.518-3.857,4.729
			c-0.629,2.082-0.371,4.358,0.629,6.246c1.017,1.824,2.711,3.212,4.729,3.841c1.888,0.565,4.6,0.5,6.246-0.629
			c23.709-16.898,50.113-28.809,76.405-41.043c3.97-1.824,5.181-7.311,3.163-10.975c-1.501-2.728-4.148-4.083-6.956-4.083
			C571.68,1563.787,570.308,1564.11,569.001,1564.723"/>
		<path fill="#D19861" d="M487.155,1609.756h-0.452c-1.824,0-4.083,1.001-5.6,2.518c-0.823,0.888-1.453,1.824-1.775,2.841
			c-0.807,0.436-1.63,1.388-2.195,2.518c-18.787,35.814-33.603,76.792-45.272,125.276c-9.329,38.203-16.333,79.875-22.628,134.976
			c-1.582,13.815-3.099,27.55-4.422,41.301l147.209,14.752c1.388,4.164,2.905,8.312,4.487,12.476
			c5.794,14.574,13.735,29.261,23.58,43.69c14.558,21.369,33.974,40.914,57.748,58.135c21.998,15.752,46.966,28.486,74.258,37.831
			c32.473,11.152,66.334,16.769,100.566,16.769c19.61,0,39.155-1.84,58.312-5.358c2.211,8.506,5.681,18.093,10.41,28.486
			c2.13,4.729,4.471,9.264,6.682,14.058l-240.271-23.757l-47.031-4.6l-16.769-1.711l-9.216-0.888
			c-60.201-5.859-120.466-11.846-181.312-18.464c-0.823,30.456-0.952,60.459-0.371,89.704c0.565,26.291,1.759,52.906,3.583,79.133
			c1.711,25.775,4.164,50.178,7.44,74.71c7.634,55.795,20.174,103.132,38.332,144.74c0.952,2.082,1.84,3.793,4.035,4.923
			c1.194,0.759,2.647,1.194,4.099,1.194c0.759,0,1.646-0.177,2.518-0.436l288.56,29.31l154.585,15.768l10.039-187.058l9.442-170.531
			h0.065c0.065,0,0.065,0.065,0.129,0.065c4.487,3.647,9.151,7.053,14.187,10.329c11.911,7.763,25.468,14.122,41.479,19.48
			c13.38,4.6,28.632,7.828,46.531,9.845c6.875,0.694,13.928,1.13,21.127,1.13c8.07,0,16.704-0.5,26.421-1.711
			c15.881-1.888,31.069-5.923,45.078-11.846l4.035-1.259l-3.857,72.628l-7.311,136.428l-8.635,142.739
			c144.563,14.687,288.996,29.374,433.558,44.061l21.062,2.147l21.062,2.146c1.695,0,3.083-0.436,4.535-1.453h0.129
			c4.099,0,6.989-1.453,8.376-4.164c17.528-34.103,30.956-72.935,42.06-122.048c9.571-42.625,15.817-85.427,22.37-132.974
			l1.453-10.652l0.194-1.759l0.258-1.711c2.26-16.64,4.6-33.344,7.182-49.985l2.647-16.769l2.647-16.833
			c1.194-7.876,2.276-15.769,3.341-23.645c-0.323,0.194-0.565,0.371-0.952,0.565c-0.694-0.307-1.259-0.436-1.888-0.436
			l-211.445-20.869l-211.397-20.804l-63.735-6.311l-17.528-2.389l4.164-4.858l1.824-2.018c10.152,4.406,21.821,7.747,35.556,10.087
			c10.717,1.695,21.563,2.518,32.15,2.518c14.574,0,29.955-1.388,45.578-4.277c26.614-4.858,53.471-13.557,79.762-25.727
			c26.098-12.04,50.743-27.05,73.258-44.578c22.757-17.657,42.237-37.266,58.006-58.248c2.889-3.857,5.665-7.828,8.506-12.04
			l128.746,12.67l29.874,3.083l24.209,2.582c0.065-0.871,0.065-1.824,0.129-2.776c1.13-27.922,1.888-55.843,2.34-85.475
			c0.371-24.968,0.678-50.001,0.5-75.033c-0.194-28.051-1.517-51.566-4.229-73.952c-3.276-26.985-9.022-50.501-17.528-71.87
			c-1.001-2.453-2.276-3.97-4.035-4.922c-2.211-2.324-4.406-2.776-6.424-3.018c-80.004-8.199-160.073-16.333-240.077-24.403
			l-116.948-11.911l-151.503-15.381l-16.14,285.155c-6.811-2.905-14.51-5.052-23.322-6.504c-4.164-0.565-8.264-0.872-12.492-0.872
			c-6.052,0.065-10.588,0.742-14.251,1.437c-7.618,1.275-14.881,4.358-21.563,7.505c-7.553,3.405-13.864,7.941-19.723,12.169
			c-6.682,4.922-12.992,10.152-19.303,15.381l-1.824,1.517l-1.517,1.259c-4.277,3.664-8.57,7.247-13.428,10.588
			c-3.841-7.44-8.312-13.864-11.411-17.963c-7.44-10.152-17.77-22.692-31.714-30.504c-8.247-4.681-17.269-6.875-28.616-7.263
			l12.105-226.197l3.906-66.011l-203.94-20.739l-126.163-12.799l-126.147-12.863H487.155z M820.228,2033.727
			c-23.08-5.988-45.659-14.881-66.963-26.404c-19.222-10.717-35.055-22.079-48.354-34.684c-8.393-8.199-15.316-16.511-21.191-25.662
			c0-0.065,0.258-0.242,0.323-0.242l126.47,12.411l71.176,7.941l1.081,2.017l-2.211,1.453
			c-13.928,15.639-20.675,38.784-20.368,68.916C847.198,2038.585,834.157,2036.697,820.228,2033.727 M1190.423,2060.212
			c-0.952-11.346-3.341-22.886-7.005-34.555l2.082-1.759l2.276-2.34c7.747-8.183,15.123-15.752,22.321-22.692
			c0-0.065,0.242-0.242,0.307-0.242l165.254,16.834c-5.423,7.311-11.992,14.493-19.997,21.869
			c-14.929,13.234-32.973,25.339-55.165,37.008c-29.18,14.752-59.136,25.597-88.897,32.279c-9.764,1.824-17.334,3.147-25.081,3.535
			C1190.681,2094.767,1192.005,2077.998,1190.423,2060.212"/>
		<path fill="#FACF62" d="M556.502,1946.415c5.794,14.558,13.751,29.245,23.58,43.69c14.558,21.369,33.974,40.914,57.748,58.135
			c21.998,15.752,46.966,28.487,74.274,37.815c32.457,11.169,66.318,16.769,100.55,16.769c19.61,0,39.155-1.824,58.312-5.358
			c2.211,8.522,5.681,18.093,10.41,28.503c2.082,4.6,4.342,9.022,6.488,13.686l21.756,2.13l5.036-88.122l4.487-83.103l-18.092-2.082
			l-17.463-1.759l-44.513-4.39l42.609,4.761l1.081,2.017l-2.211,1.453c-13.929,15.639-20.675,38.767-20.368,68.916
			c-12.976-0.888-26.033-2.776-39.962-5.746c-23.08-5.988-45.643-14.881-66.963-26.421c-19.222-10.717-35.039-22.063-48.354-34.668
			c-8.36-8.183-15.284-16.479-21.143-25.614l-131.667-12.976C553.42,1938.152,554.921,1942.316,556.502,1946.415"/>
		<path fill="#FACF62" d="M1126.621,1961.609c-6.811-2.905-14.493-5.036-23.322-6.488c-4.164-0.565-8.264-0.888-12.492-0.888
			c-6.052,0.065-10.588,0.759-14.251,1.453c-7.618,1.259-14.865,4.342-21.546,7.505c-7.569,3.406-13.88,7.941-19.739,12.169
			c-6.682,4.906-12.992,10.136-19.287,15.381l-1.84,1.501l-1.501,1.275c-4.293,3.647-8.586,7.247-13.444,10.588
			c-3.841-7.44-8.312-13.88-11.411-17.963c-7.44-10.152-17.77-22.708-31.698-30.52c-8.183-4.616-17.108-6.827-28.293-7.231
			l-10.232,190.625L916.112,2165l-0.371,7.053h0.048c0.065,0,0.065,0.064,0.129,0.064c4.487,3.664,9.151,7.053,14.187,10.346
			c11.911,7.747,25.468,14.122,41.495,19.48c13.364,4.6,28.616,7.812,46.514,9.829c6.875,0.694,13.945,1.13,21.127,1.13
			c8.07,0,16.705-0.5,26.421-1.695c15.881-1.888,31.069-5.923,45.078-11.863l3.648-1.13l12.169-227.278l8.861-164.85
			L1126.621,1961.609z"/>
		<path fill="#FACF62" d="M1129.836,2048.485l-3.083,56.86c-1.017,19.109-2.017,38.154-3.099,57.183l41.237,4.293l-5.988-0.823
			l4.164-4.858l1.824-2.018c10.152,4.422,21.805,7.763,35.556,10.087c10.717,1.711,21.563,2.534,32.15,2.534
			c14.574,0,29.955-1.388,45.578-4.293c26.614-4.858,53.47-13.557,79.762-25.727c26.098-12.04,50.743-27.034,73.258-44.562
			c22.757-17.657,42.237-37.266,58.006-58.264c2.824-3.712,5.536-7.553,8.247-11.653l-117.642-11.604l-67.964-6.698l63.8,6.504
			c-5.407,7.311-11.976,14.51-19.981,21.885c-14.945,13.234-32.973,25.339-55.165,37.008c-29.18,14.751-59.136,25.597-88.897,32.279
			c-9.765,1.824-17.334,3.147-25.081,3.518c4.164-15.381,5.488-32.15,3.906-49.92c-0.952-11.362-3.341-22.886-7.005-34.555
			l2.082-1.759l2.276-2.34c7.715-8.183,15.074-15.736,22.257-22.644l-76.857-7.553L1129.836,2048.485z"/>
		<path fill="#DFB956" d="M657.307,1721.905c-11.846,0.694-23.645,2.841-34.991,6.44c-10.216,3.083-20.546,8.134-30.698,14.945
			c-18.786,12.734-33.796,33.151-42.237,57.489c-4.422,12.605-7.247,27.179-8.457,43.254c-1.194,16.14-0.5,33.796,2.082,52.389
			c1.711,12.411,4.6,24.968,8.699,37.508h0.323c1.388,4.164,2.905,8.328,4.471,12.492c5.81,14.558,13.751,29.245,23.58,43.69
			c14.558,21.369,33.99,40.914,57.748,58.119c22.014,15.768,46.966,28.503,74.274,37.831c32.473,11.152,66.318,16.769,100.55,16.769
			c19.61,0,39.155-1.824,58.329-5.358c2.195,8.506,5.665,18.093,10.394,28.503c1.824,4.083,3.841,8.005,5.746,12.105
			c3.712,6.617,7.876,12.799,12.347,18.399c3.664,4.535,8.005,8.635,12.169,12.492c1.323,1.13,2.711,2.324,4.099,3.406v-0.323h0.065
			c0.065,0,0.065,0.064,0.129,0.064c4.471,3.647,9.135,7.053,14.187,10.345c11.911,7.747,25.468,14.122,41.479,19.48
			c13.364,4.6,28.616,7.812,46.531,9.829c6.875,0.694,13.928,1.13,21.111,1.13c8.07,0,16.705-0.5,26.421-1.695
			c15.881-1.888,31.085-5.923,45.078-11.863l2.841-0.872c12.976-5.681,25.146-13.299,35.927-22.757
			c3.406-2.905,6.682-6.117,9.781-9.651l-0.387-0.065l4.164-4.858l1.824-2.018c10.152,4.422,21.821,7.763,35.572,10.087
			c10.717,1.711,21.563,2.518,32.15,2.518c14.558,0,29.939-1.372,45.578-4.277c26.598-4.858,53.471-13.557,79.746-25.727
			c26.114-12.04,50.759-27.05,73.274-44.578c22.757-17.641,42.237-37.25,57.99-58.248c2.905-3.841,5.681-7.812,8.522-12.04h0.242
			c4.535-7.005,8.635-13.993,12.169-20.869c5.294-10.023,9.845-21.627,13.557-34.49c3.083-11.153,4.793-22.757,5.294-35.556
			c0.323-11.282-1.001-22.951-4.099-35.62c-2.711-11.217-7.376-22.628-14.251-34.926c-7.941-14.38-18.851-26.985-28.422-37.444
			c-5.552-5.875-11.604-11.604-18.415-17.463c-6.052-5.116-12.411-9.716-20.174-14.574c-11.669-7.376-24.532-12.734-38.203-15.881
			c-8.005-1.888-15.946-2.776-23.645-2.776c-16.64,0-33.732,3.728-50.872,11.104c-22.386,9.506-44.448,24.903-69.352,48.419
			c-19.868,18.851-38.832,40.72-61.54,70.982c-14.929,19.981-30.197,42.108-48.096,69.723c-6.875-6.746-15.381-12.169-25.162-16.14
			c0,0-0.065,0-0.129-0.065v0.323c-6.795-2.905-14.493-5.052-23.322-6.488c-4.164-0.581-8.264-0.888-12.476-0.888
			c-6.052,0.065-10.604,0.759-14.251,1.453c-7.634,1.259-14.881,4.342-21.563,7.505c-7.569,3.406-13.864,7.941-19.739,12.169
			c-6.682,4.906-12.976,10.136-19.287,15.381l-1.824,1.501l-1.517,1.275c-4.035,3.454-8.134,6.859-12.67,10.071
			c-0.194,0.129-0.323,0.258-0.5,0.387v-0.065c-0.065,0.065-0.194,0.129-0.258,0.194c-3.841-7.44-8.328-13.88-11.411-17.979
			c-7.44-10.136-17.786-22.692-31.714-30.504c-8.134-4.6-17.027-6.811-28.18-7.247c-1.065,0.065-2.147,0.113-3.276,0.178
			c-2.711-10.717-6.875-22.37-12.234-34.603c-7.941-18.415-18.528-37.202-32.344-57.441c-10.846-16.204-24.468-33.28-41.543-52.325
			c-10.023-10.975-20.933-21.175-32.537-30.391c-21.692-17.14-46.902-31.02-72.935-40.091
			c-22.515-7.941-45.078-11.976-67.205-11.976C662.988,1721.728,660.148,1721.792,657.307,1721.905 M682.146,1944.083
			c-3.841-7.005-6.682-13.493-8.57-19.981c-1.388-5.116-2.276-10.717-2.518-16.527c0-5.536,0.629-11.088,1.888-16.834
			c1.695-5.988,4.035-12.04,7.069-17.963c3.583-6.117,7.311-11.217,11.411-15.704c3.083-3.018,6.424-5.794,9.829-8.183
			c3.777-2.017,7.247-3.47,10.652-4.551c3.599-0.872,7.505-1.323,11.911-1.453c5.487,0.129,10.539,0.694,15.446,1.775
			c8.586,2.26,17.415,5.923,27.179,11.088c17.721,10.023,35.184,23.402,54.907,42.189l1.517,0.936
			c16.333,16.462,31.779,33.861,45.901,51.695c4.261,5.391,8.409,10.91,12.524,16.479l0.403,0.048l0.904,1.711
			c0.016,0.016,0.016,0.032,0.032,0.048l0.129,0.258l-2.211,1.453c-13.848,15.542-20.594,38.509-20.352,68.432v0.097v0.371
			c-12.992-0.888-26.049-2.776-39.978-5.73c-23.08-5.988-45.643-14.881-66.947-26.421c-19.238-10.717-35.055-22.063-48.37-34.668
			c-8.376-8.199-15.317-16.527-21.175-25.662c0-0.048,0.081-0.113,0.145-0.178C683.292,1945.907,682.711,1945.003,682.146,1944.083
			 M1299.05,1929.961c10.652-5.294,19.674-8.764,28.438-10.846c5.1-1.001,10.087-1.453,14.752-1.453
			c4.793,0.323,8.505,0.888,12.347,1.888c3.034,1.017,5.939,2.34,8.699,3.986c3.163,2.066,6.182,4.664,9.345,7.876
			c3.712,4.229,7.053,9.07,10.087,14.752c2.824,5.665,4.777,11.023,6.101,16.446c0.952,4.68,1.34,9.716,1.211,14.945
			c-0.258,4.035-1.017,8.328-2.34,13.493c-2.211,6.553-5.165,12.992-8.828,19.174c-1.13,1.759-2.389,3.454-3.648,5.165l0.436,0.065
			c-5.423,7.311-11.976,14.493-19.981,21.869c-14.945,13.251-32.973,25.355-55.165,37.008
			c-29.197,14.751-59.136,25.597-88.897,32.279c-8.635,1.646-15.51,2.841-22.321,3.341c-0.823,0.129-1.695,0.258-2.518,0.323
			c0-0.065,0-0.129,0.064-0.129h-0.323c4.164-15.381,5.487-32.15,3.922-49.936c-0.952-11.346-3.341-22.886-7.005-34.539l2.082-1.775
			l2.26-2.324c7.763-8.199,15.139-15.768,22.321-22.692c0-0.064,0.258-0.258,0.323-0.258h0.307
			c5.875-5.746,11.669-11.152,17.35-16.333c18.27-16.575,42.802-37.573,70.788-52.325c0,0.065-0.065,0.129,0,0.129
			S1299.05,1929.961,1299.05,1929.961"/>
		<path fill="#BC3C4C" d="M1992.139,1920.819h-0.016l-0.065,0.065l-69.029,28.406l-237.817,97.774
			c-1.614-0.145-2.163-0.242-2.599-0.436c-0.323-0.242-0.742-0.678-1.178-1.275l-25.081-2.711l-29.874-3.099l-128.762-12.67
			c-2.857,4.18-5.617,8.151-8.522,12.056c-15.768,20.965-35.265,40.559-57.974,58.232c-22.515,17.544-47.176,32.521-73.29,44.545
			c-26.291,12.202-53.132,20.869-79.762,25.775c-15.639,2.841-30.972,4.277-45.578,4.277c-10.588,0-21.401-0.839-32.118-2.501
			c-13.783-2.405-25.436-5.714-35.572-10.152l-1.84,2.017l-4.148,4.89l17.495,2.356l63.735,6.311l211.397,20.804l211.461,20.868
			c0.629,0,1.243,0.145,1.904,0.484c1.162-0.71,1.792-1.082,2.776-1.582l156.845-64.494l156.926-64.559
			c3.986-45.159,8.828-104.552,11.701-164.818C1993.123,1921.384,1992.203,1920.819,1992.139,1920.819"/>
		<path fill="#BC3C4C" d="M915.798,2172.071h-0.065l-9.426,170.499l-10.087,187.752l133.297,14.171l65.382,6.617l8.683-143.965
			l7.311-136.428l3.841-72.628l-4.003,1.227c-13.993,5.972-29.164,9.974-45.094,11.911c-9.7,1.146-18.351,1.695-26.404,1.695
			c-7.182,0-14.219-0.436-21.094-1.13c-17.947-2.017-33.183-5.261-46.563-9.877c-15.978-5.342-29.536-11.717-41.43-19.464
			c-5.052-3.292-9.781-6.682-14.251-10.329C915.878,2172.087,915.83,2172.071,915.798,2172.071"/>
		<path fill="#BC3C4C" d="M1281.145,1518.857c-0.048,0-0.274,0.161-0.307,0.177l-275.891,112.057
			c-1.598-0.129-2.179-0.274-2.453-0.355l-17.479,6.795l-41.479,16.882l-3.938,67.738l-12.105,226.197
			c11.314,0.371,20.336,2.615,28.567,7.279c13.961,7.795,24.274,20.368,31.73,30.472c3.083,4.148,7.602,10.555,11.395,17.996
			c4.842-3.341,9.135-6.924,13.428-10.604l1.501-1.259l1.824-1.501c6.311-5.229,12.621-10.458,19.303-15.381
			c5.859-4.213,12.218-8.748,19.755-12.153c6.666-3.163,13.912-6.262,21.595-7.553c3.648-0.678,8.183-1.372,14.219-1.436
			c4.212,0,8.312,0.307,12.46,0.872c8.877,1.453,16.511,3.599,23.354,6.553l16.349-289.593c0.065-1.453,0.21-2.034,0.436-2.518
			c0.452-0.742,1.098-1.097,2.195-1.565l243.159-98.661l70.11-28.503c-32.215-5.262-67.835-9.926-112.154-14.994
			c-22.24-2.534-44.061-4.793-65.559-6.94H1281.145z"/>
		<path fill="#BC3C4C" d="M404.105,1919.133c-0.032,0-0.323,0.21-0.339,0.242c-3.777,35.701-6.585,70.03-8.651,102.309
			c-1.388,24.209-2.389,47.338-2.954,68.771c61.234,6.666,121.935,12.653,182.587,18.593l9.216,0.872l16.769,1.711l47.031,4.6
			l240.254,23.774c-2.147-4.777-4.487-9.329-6.633-14.058c-4.745-10.41-8.231-19.997-10.394-28.454
			c-19.19,3.518-38.767,5.358-58.361,5.358c-34.248,0-68.061-5.665-100.55-16.818c-27.276-9.296-52.26-22.014-74.242-37.815
			c-23.758-17.205-43.19-36.766-57.764-58.135c-9.861-14.429-17.786-29.116-23.564-43.674c-1.566-4.148-3.083-8.312-4.471-12.476
			l-147.92-14.8H404.105z"/>
		<path fill="#BC3C4C" d="M1210.408,1998.633c-0.097,0-0.291,0.145-0.291,0.242c-7.198,6.924-14.574,14.51-22.337,22.708
			l-2.26,2.324l-2.082,1.759c3.647,11.637,6.02,23.193,7.021,34.555c1.549,17.753,0.21,34.555-3.97,49.936
			c7.763-0.387,15.365-1.678,25.146-3.583c29.761-6.682,59.652-17.511,88.881-32.231c22.176-11.653,40.204-23.758,55.133-37.04
			c8.021-7.376,14.558-14.542,19.997-21.885l-165.221-16.785H1210.408z"/>
		<path fill="#BC3C4C" d="M684.042,1946.746c-0.097,0-0.29,0.145-0.29,0.242c5.826,9.151,12.734,17.463,21.175,25.646
			c13.315,12.621,29.132,23.967,48.322,34.7c21.337,11.491,43.884,20.384,66.979,26.437c13.928,2.937,26.969,4.793,39.946,5.665
			c-0.323-30.117,6.456-53.245,20.384-68.9l2.211-1.42l-1.065-2.05l-71.176-7.892l-126.47-12.427H684.042z"/>
		<path fill="#46A6A2" d="M829.212,1052.579c-33.102,5.294-67.722,12.427-102.955,21.191c-17.027,4.342-33.603,8.941-49.242,13.735
			c-15.946,4.793-32.279,11.346-48.419,19.416c-0.823,0.452-1.582,1.017-2.147,1.711c-2.34,0.759-4.229,2.647-5.036,5.1
			c-4.293,6.375-7.569,11.927-10.216,17.463c-3.535,7.134-6.246,15.074-8.393,21.433c-5.165,15.575-8.134,31.714-10.329,45.53
			c-2.405,14.945-3.987,30.262-5.552,45.013l-0.888,8.247c-1.517,13.864-2.954,27.744-3.97,41.608
			c-3.018,40.155-2.582,77.051,1.194,112.671c1.84,17.463,4.858,35.168,9.264,54.342c2.147,9.135,4.358,18.286,7.134,27.228
			c2.518,8.328,6.117,16.527,10.975,25.032c0.436,0.888,1.13,1.582,2.13,2.276c0.952,2.146,2.841,3.777,5.181,4.277l266.933,67.205
			l270.581,68.029l212.591,53.535l284.913,71.611l15.381,3.906l20.417,5.116c2.405,0.936,3.468,1.194,4.664,1.194
			c0.822,0,1.775-0.129,2.905-0.436c51-13.315,102.632-33.296,153.455-59.394c55.472-28.567,100.548-59.523,137.881-94.627
			c1.453-1.388,2.082-3.857,2.017-5.681c4.229-12.363,7.247-24.968,10.216-37.137l1.499-6.117
			c3.794-15.559,7.44-31.956,10.846-48.79c7.006-34.732,11.412-66.77,13.493-97.903c0.629-9.022,0.954-18.109,1.259-27.115
			l0.583-14.623c0.629-14.187,1.194-28.131,0.934-41.866c-0.499-32.909-6.115-57.941-17.768-78.616
			c-1.081-2.017-3.036-3.47-5.312-4.099c-0.805-0.823-1.759-1.388-2.581-1.582l-141.028-34.103l-105.908-25.646l-257.298-62.234
			l-257.282-62.218l-200.874-48.613c-1.323-0.258-2.324-0.436-3.276-0.436c-0.694,0-1.566,0.048-2.453,0.436
			c-10.846-0.436-21.692-0.694-32.602-0.694C947.66,1037.957,889.477,1042.879,829.212,1052.579 M597.318,1304.244
			c0.888-14.122,2.211-28.244,3.728-42.302l1.824-16.947l1.824-16.963c2.711-23.757,6.311-49.048,14.122-72.806l0.323-1.775
			c4.035-10.588,8.376-19.545,13.234-27.292c0-0.065,0.258-0.323,0.323-0.323s0.065,0.065,0.129,0.129
			c117.448,28.938,234.654,58.442,352.037,88.009l156.296,39.268l532.154,133.846l42.933,10.846l22.063,5.843l4.616,1.162
			c0,0.032-0.016,0.048-0.016,0.065l0.257,0.065c-23.691,67.77-39.59,124.953-49.983,179.86c-6.44,33.102-10.588,66.14-12.3,98.097
			c-0.999,16.462-1.193,33.232-0.434,49.807c0.242,8.134,0.871,16.269,1.564,24.339l0.324,3.341
			c0.274,2.776,0.581,5.552,0.662,8.425c0.063,0.403,0.111,0.775,0.161,1.162c-0.05,0-0.099-0.016-0.129-0.032v0.274
			c-120.805-30.633-241.788-61.089-362.77-91.479c-184.589-46.466-369.258-92.916-553.847-139.317l-142.238-35.878l-1.13-2.147
			l-0.952-1.695c-6.311-12.96-10.184-27.066-13.073-40.995c-0.952-4.099-1.808-8.134-2.647-12.04l-0.129,0.387l0.032,1.001
			c-0.048-0.21-0.097-0.436-0.129-0.678l-0.242,0.807C597.205,1404.439,594.364,1357.343,597.318,1304.244 M1698.411,1762.528
			l-0.694-6.553c-0.825-8.134-1.259-16.269-1.646-24.403c-0.678-15.768-0.5-32.344,0.581-50.807
			c4.729-74.904,22.499-155.973,55.971-255.151l3.601-10.281l3.664-10.265c52.5-16.656,91.479-31.02,126.47-46.531
			c45.255-20.11,82.393-42.06,113.478-67.028c0.065-0.048,0.129-0.113,0.176-0.113c0.066,0,0.258,0.242,0.258,0.242l1.583,3.857
			l1.693,4.342c3.859,10.846,6.377,22.692,7.894,36.25c1.564,20.11,0.742,41.043,0,61.476l-0.583,14.687
			c-0.759,18.786-1.564,32.344-2.71,45.32c-1.259,12.363-2.824,24.403-5.036,37.331c-0.436,2.711-0.825,5.552-1.323,8.393
			l0.24-0.323l0.389-1.13c-0.064,0.242-0.131,0.5-0.194,0.807l0.563-0.807c-4.469,24.08-8.439,43.561-12.605,61.331
			c-2.276,10.039-4.727,20.126-7.503,31.15c-2.389,9.894-4.971,20.174-8.376,30.133l-3.906,4.729
			c-35.507,31.973-77.874,60.394-129.44,86.944c-42.625,21.563-85.362,38.703-127.358,51.001c-4.664,1.388-9.329,2.711-13.93,3.97
			v-0.129c-0.129,0.065-0.258,0.065-0.37,0.129L1698.411,1762.528z"/>
		<path fill="#3D9490" d="M2000.005,1291.421c-0.048,0-0.145,0.048-0.177,0.081c-31.101,25-68.206,46.902-113.494,67.012
			c-34.975,15.559-73.984,29.907-126.454,46.531l-3.696,10.313l-3.599,10.265c-33.425,99.194-51.211,180.263-55.924,255.135
			c-1.065,18.464-1.259,35.088-0.565,50.824c0.371,8.134,0.823,16.269,1.63,24.419l0.694,6.553l0.888,8.57
			c46.579-12.411,94.175-30.94,141.657-54.972c51.566-26.533,93.884-54.988,129.391-86.96l3.922-4.745
			c3.422-9.91,5.956-20.191,8.425-30.133c2.776-11.04,5.229-21.127,7.505-31.15c4.132-17.77,8.118-37.25,12.541-61.298l-1.307,1.985
			c3.147-16.365,5.181-31.085,6.666-46.24c1.146-13.009,1.969-26.566,2.711-45.352l0.565-14.687c0.823-20.433,1.646-41.366,0-61.476
			c-1.453-13.525-4.019-25.388-7.812-36.25l-1.711-4.342l-1.566-3.841C2000.264,1291.631,2000.054,1291.421,2000.005,1291.421"/>
		<path fill="#54C2BC" d="M632.693,1125.864c-0.097,0-0.291,0.21-0.291,0.291c-4.858,7.747-9.232,16.704-13.299,27.308l-0.242,1.727
			c-7.844,23.79-11.411,49.064-14.122,72.838l-1.84,16.947l-1.824,16.963c-1.517,14.074-2.841,28.196-3.712,42.318
			c-2.986,53.083-0.178,100.195,8.57,144.03l0.629-2.211c3.18,17.899,7.295,36.815,15.526,53.761l0.936,1.695l1.146,2.146
			l142.255,35.895c184.605,46.401,369.258,92.867,553.863,139.333c120.983,30.375,241.965,60.83,362.754,91.479
			c-0.032-3.454-0.355-6.666-0.71-9.894l-0.339-3.341c-0.694-8.054-1.323-16.188-1.582-24.322
			c-0.694-16.575-0.549-33.312,0.436-49.791c1.759-31.973,5.907-64.978,12.298-98.08c10.426-54.955,26.324-112.122,50.065-179.892
			l-26.985-7.15l-42.931-10.83l-532.172-133.846l-156.296-39.284c-117.319-29.536-234.557-59.023-352.037-88.026
			C632.757,1125.896,632.741,1125.864,632.693,1125.864"/>
		<path fill="#EF6E84" d="M999.963,1037.38c11.346,18.593,22.757,37.202,34.168,55.73c31.214,50.872,62.476,101.889,93.691,152.826
			c0.194,0.194,0.307,0.436,0.436,0.694c0.129,0.194,0.258,0.371,0.323,0.565c0.371,0.565,0.436,1.323,0.371,2.082
			c0.452,0.694,0.629,1.582,0.5,2.453c-18.399,127.487-36.879,254.958-55.343,382.38l74.952,18.819
			c18.302-126.389,36.621-252.779,54.923-379.136c0.177-1.404,1.114-2.599,2.324-3.163c-0.065-0.097-0.129-0.194-0.194-0.29
			c-46.079-75.162-92.222-150.308-138.317-225.519l-27.115-6.617c-1.501-0.452-2.453-0.565-3.389-0.565
			c-1.017,0-1.84,0.177-2.663,0.565c-10.652-0.565-21.498-0.823-32.392-0.823H999.963z"/>
		<path fill="#EF6E84" d="M1310.193,1248.235c10.458,17.092,20.869,34.168,31.392,51.195c0.565,0.888,0.516,2.211,0.194,3.083
			c-0.323,0.759-0.759,1.323-1.323,1.84c1.323,0.807,2.082,2.389,1.888,3.97c-18.286,126.47-36.556,252.989-54.907,379.458
			l78.713,19.819c18.335-126.712,36.669-253.408,55.004-380.12c0.065-0.42,0.21-0.823,0.387-1.194h-0.016
			c-1.065-0.436-1.695-1.13-2.26-2.082c-46.789-76.098-93.368-152.197-140.027-228.343l-37.638-9.087l-35.685-8.635
			C1240.648,1134.886,1275.396,1191.488,1310.193,1248.235"/>
		<path fill="#EF6E84" d="M807.212,725.713c-11.152,0-21.627,1.517-31.117,4.535c-11.701,3.567-22.983,10.362-32.667,19.658
			c-8.296,8.118-15.123,18.593-20.271,31.133c-4.842,11.927-7.892,24.823-9.28,39.445c-2.599,26.985,0.92,56.198,10.168,84.491
			c4.39,13.444,10.684,27.115,18.722,40.623c7.828,13.186,17.899,26.469,30.794,40.623c11.524,12.653,25.016,24.855,40.123,36.282
			c15.058,11.282,30.649,20.836,46.369,28.39c28.196,13.686,56.359,20.626,83.716,20.626l4.551-0.065
			c14.574-0.436,29.116-3.389,43.238-8.78c7.828-2.937,15.575-6.892,23.047-11.734l8.086,5.165c1.275,1.533,3.26,2.663,5.423,3.05
			l10.717,5.907c0.904,0.452,2.26,1.033,3.922,1.033c3.131,0,6.085-1.759,7.586-4.503c0.742-1.42,1.098-2.954,1.033-4.422
			c3.018-0.161,6.101-0.662,9.216-1.356c0.629,1.775,1.969,3.115,3.68,3.777c10.765,4.212,21.95,7.15,33.264,8.715
			c5.471,0.71,11.314,1.065,17.382,1.065c6.488,0,12.992-0.404,19.4-1.065c12.315-1.243,24.419-4.164,33.57-6.569
			c8.796-2.34,17.963-5.455,27.26-9.264c15.542-6.375,31.166-14.849,47.757-25.872c15.139-9.99,29.891-21.885,45.078-36.33
			c14.138-13.444,27.002-28.39,38.251-44.416c11.217-16.01,20.158-32.667,26.55-49.516c13.88-36.379,14.542-72.822,1.888-102.632
			c-5.714-13.59-14.832-25.065-26.356-33.167c-10.668-7.553-23.516-12.331-38.138-14.154c-4.487-0.629-9.022-0.888-13.59-0.888
			c-9.313,0-19.4,1.211-29.971,3.599c-14.267,3.26-28.39,8.619-43.157,16.333c-28.454,14.897-53.68,39.59-77.164,75.533
			c-22.805,34.975-39.946,73.613-55.052,107.7l-0.92,2.114l-0.904,2.114c-2.243-0.678-4.745-0.985-7.311-0.985
			c-4.906,0-9.781,1.033-14.058,2.986c-4.003,1.775-7.553,4.083-11.508,7.457c-4.438,3.857-7.698,8.683-10.055,12.46
			c-0.629,0.952-1.21,1.888-1.775,2.905c-6.262-10.636-15.236-18.77-25.694-23.515c-3.922-1.84-8.038-2.905-12.234-3.163
			c-6.472-8.732-12.492-18.803-17.754-29.858c-8.893-19.529-15.187-40.381-21.256-60.556l-0.823-2.76
			c-1.856-6.165-3.712-12.363-5.665-18.496c-4.745-14.865-9.764-27.873-15.381-39.8c-5.778-12.266-13.331-23.79-22.418-34.281
			c-18.851-21.369-48.031-35.168-82.199-38.832C816.621,725.955,811.892,725.713,807.212,725.713 M1188.962,875.731
			c9.313-8.231,21.837-18.625,36.201-26.211c5.181-2.631,10.12-4.471,15.09-5.665c2.566-0.549,5.197-0.807,8.038-0.807
			c1.808,0.113,3.615,0.436,5.375,0.872c1.743,0.629,3.373,1.436,5.003,2.324c1.695,1.243,3.179,2.566,4.632,4.067
			c2.001,2.437,3.777,5.132,5.261,7.957c2.695,5.568,4.81,11.766,6.617,19.513c1.42,7.15,2.05,13.638,1.953,19.819
			c-0.371,6.73-1.469,13.138-3.341,19.561c-2.55,7.15-5.6,13.493-9.313,19.577v-0.016c-5.875,8.796-13.105,17.092-21.482,24.694
			c-11.459,10.039-24.548,18.867-39.978,26.953c-18.464,9.296-38.073,16.366-58.296,21.046c-0.065,0.032-1.065,0.291-1.049,0.371
			c0,0.081-0.888,0.323-0.807,0.323c-12.573,2.292-24.177,3.664-35.055,3.841c0.468-1.533,0.678-2.889,0.807-4.374
			c0.694-7.65-0.581-15.865-3.664-23.774c-1.21-3.099-2.663-6.004-4.245-8.78c7.941-10.733,16.253-21.514,24.694-32.037
			c23.338-29.18,43.529-51.195,63.542-69.255l-0.097-0.129L1188.962,875.731z M816.896,921.454c-0.016,0-0.097-0.081-0.032-0.113
			c0.081-0.048-0.129-0.274-0.161-0.355c-2.857-6.585-5.019-13.347-6.424-20.078c-0.968-6.149-1.243-12.25-0.872-18.609
			c0.742-5.859,2.211-11.927,4.342-18.06c1.904-4.616,4.035-8.586,6.472-12.121c1.243-1.436,2.55-2.954,4.003-4.261
			c1.001-0.742,2.066-1.372,3.18-2.001c1.13-0.42,2.243-0.807,3.502-1.114c0.968-0.065,1.727-0.129,2.534-0.129
			c0.71,0,1.34,0.065,2.034,0.113c2.598,0.274,4.971,1.017,7.198,1.775c4.551,1.904,9.183,4.535,14.574,8.296
			c16.349,12.524,29.067,26.485,43.399,43.787c10.975,13.428,20.691,26.162,30.391,38.896l10.216,13.364
			c4.794,6.198,9.668,12.427,14.897,18.238c1.953,2.147,4.035,4.035,6.198,5.939c-0.516,2.631-0.565,5.617-0.565,8.457
			c-0.065,5.213,0.678,10.62,2.147,15.672c1.13,4.019,3.228,8.28,6.585,13.412c1.065,1.759,2.26,3.405,3.518,5.052l-3.067-0.516
			c-3.212,0-6.44-0.129-9.587-0.371c-14.526-1.566-28.825-5.1-44.271-10.846c-16.85-6.666-33.167-15.494-48.516-26.195l-1.323-0.952
			c-12.976-9.603-24.484-20.368-34.2-32.005C826.257,938.24,820.979,929.976,816.896,921.454z"/>
		<path fill="#F5C09B" d="M1565.701,2181.008c-4.729,0-9.248,1.13-13.073,3.292c-6.44,3.68-11.33,10.442-14.138,19.577
			c-1.549,5.084-2.502,10.652-2.824,16.559c-0.355,5.956,0.339,12.024,2.195,19.158l-6.165-3.712
			c-14.655-10.41-29.39-18.883-43.787-25.162c-16.366-7.134-31.085-10.62-45.013-10.668c-6.553,0-12.928,1.194-18.916,3.486
			c-6.004,2.26-11.717,6.165-16.963,11.621c-3.486,3.631-5.988,8.199-7.408,13.622c-1.549,5.939,0.129,11.976,1.259,15.058
			c1.598,4.358,4.309,8.586,8.538,13.283c3.68,4.18,8.005,8.038,13.589,12.121c9.442,6.989,20.368,13.364,35.443,20.626l2.292,0.936
			c-12.169-1.759-23.112-2.712-33.409-2.938l-1.727-0.032l-1.808-0.032c-14.51,0-26.098,2.34-35.443,7.15
			c-5.1,2.566-9.296,5.988-12.541,10.12c-3.599,4.697-5.972,10.572-6.827,16.979c-0.759,4.971-0.307,9.99,1.323,14.945
			c1.42,4.422,4.261,8.716,8.683,13.122c3.744,3.825,8.619,6.569,12.444,8.538c5.471,2.857,11.508,4.777,17.253,6.504
			c13.234,3.89,27.147,5.488,37.783,6.44c2.582,0.242,5.181,0.436,7.763,0.629c-2.502,0.71-4.923,1.775-7.247,2.97
			c-5.972,2.986-11.007,6.117-15.413,9.603c-7.166,5.713-15.704,15.01-15.623,26.727c0.048,4.842,1.598,9.684,4.616,14.413
			c3.535,5.504,8.957,9.361,14.671,13.154c5.972,3.874,13.154,7.117,22.612,10.168c7.65,2.518,15.688,4.422,24.548,5.746
			c8.861,1.307,18.173,1.937,28.486,1.937c8.231,0,16.479-0.42,24.645-1.065c29.1-2.389,58.167-8.473,86.299-14.364l20.142-4.164
			c1.243,0.484,2.227,0.678,3.212,0.678c2.066,0,4.067-0.839,5.617-2.373c6.424-1.21,12.847-2.276,19.335-3.292
			c2.534-0.355,4.261-1.21,5.649-2.76c1.453-1.711,2.179-3.841,2.05-5.988c-0.274-3.647-3.551-7.715-7.812-7.715
			c-4.358,0.581-7.699,1.081-10.975,1.646c2.001-4.438,3.728-9.119,5.294-13.912c2.841-8.49,5.181-17.77,7.134-28.325
			c1.937-10.749,2.728-22.176,2.324-33.942c1.872,2.018,4.083,3.841,6.375,5.601c1.614,1.275,3.599,1.985,5.568,1.985
			c2.356,0,4.503-0.968,6.052-2.76c1.436-1.63,2.179-3.987,1.985-6.294c-0.194-2.179-1.178-4.067-2.76-5.342
			c-6.811-5.342-13.38-11.427-19.529-18.076l-0.436-1.792l0.161-0.032c-0.549-3.341-3.147-5.939-6.617-6.617
			c-2.744-3.712-5.455-7.634-7.957-11.653c-4.261-6.73-7.828-13.654-11.039-20.158c-2.97-6.117-5.81-12.331-8.667-18.544
			c-2.389-5.245-4.81-10.491-7.279-15.688l-0.823-1.743c-4.358-9.345-8.893-19.029-14.961-27.47
			c-5.084-7.037-11.249-13.444-18.302-19.077c-6.795-5.407-14.106-9.28-21.74-11.508
			C1571.124,2181.411,1568.316,2181.008,1565.701,2181.008"/>
		<path fill="#F5C09B" d="M715.692,2269.964c-6.424,0.194-12.799,1.582-18.786,4.1c-12.863,5.423-25.097,14.316-37.444,27.163
			c-10.846,11.427-21.191,24.904-30.714,40.107l-4.277,5.794c-1.017-7.247-2.711-13.17-5.294-18.464
			c-2.598-5.358-5.617-10.087-9.022-14.187c-6.117-7.376-13.234-11.733-20.61-12.605c-4.358-0.581-8.957,0.113-13.315,1.953
			c-2.389,1-4.842,2.518-7.053,4.277c-6.181,4.987-11.411,11.346-15.575,18.98c-4.358,7.876-7.569,16.204-9.587,24.645
			c-2.324,10.152-2.776,20.804-3.212,31.149l-0.065,1.888c-0.307,5.746-0.5,11.54-0.694,17.285
			c-0.178,5.81-0.339,11.734-0.646,17.56c0.21,3.696,0.387,7.392,0.516,11.088c0.081,1.63,0.145,3.26,0.194,4.89
			c0.226,6.101,0.291,12.202,0.291,18.286c0.016,2.776,0.016,5.552,0.016,8.344c0.065,1.646,0.145,3.228,0.194,4.826
			c0.387,9.199,0.565,18.415,0.194,27.615c-0.065,1.453-0.129,2.954-0.194,4.406c3.664,8.893,8.005,17.221,12.928,24.839
			c5.859,9.022,11.604,16.656,17.528,23.402c1.388,1.566,2.841,3.212,4.293,4.777c2.324,1.84,4.729,3.599,7.118,5.358
			c4.535,3.292,9.2,6.311,14.122,9.022c-0.129-0.064-0.194-0.129-0.307-0.129c0.629,0.323,1.259,0.565,1.824,0.888
			c0.436,0.194,0.823,0.436,1.194,0.759c2.776,0.436,5.552,0.936,8.393,1.194l17.205-3.341c28.18-5.423,57.376-10.975,85.169-19.981
			c7.763-2.582,15.51-5.358,23.144-8.586c9.522-3.97,17.834-8.118,25.533-12.734c7.634-4.664,14.316-9.442,20.433-14.752
			c7.553-6.488,12.912-12.218,16.947-18.093c3.793-5.729,7.311-11.346,8.457-17.834c0.936-5.488,0.5-10.588-1.259-15.074
			c-4.487-10.846-15.962-16.075-24.774-18.593c-5.358-1.517-11.233-2.453-17.915-2.97c-2.582-0.177-5.229-0.242-7.812,0.065
			c2.26-1.13,4.6-2.324,6.875-3.583c9.458-4.987,21.676-11.798,32.392-20.497c4.664-3.777,9.458-7.876,13.428-12.605
			c2.776-3.341,6.181-7.763,8.199-12.734c2.34-5.746,3.341-10.781,2.97-15.446c-0.452-5.181-1.953-9.974-4.535-14.316
			c-3.292-5.552-7.763-10.087-12.863-12.992c-4.6-2.583-9.781-4.1-15.51-4.535c-10.475-0.823-22.063,1.517-35.443,7.053l-1.63,0.759
			l-1.582,0.694c-9.458,4.164-19.158,9.28-29.697,15.575l1.711-1.695c11.152-12.557,18.786-22.644,24.774-32.731
			c3.599-5.923,6.117-11.152,7.876-16.446c2.082-5.923,2.97-10.91,2.711-15.51c-0.129-3.276-0.872-9.522-4.6-14.38
			c-3.405-4.471-7.505-7.747-12.105-9.7c-6.488-2.841-12.863-4.229-18.98-4.229H715.692z"/>
		<path fill="#429870" d="M2319.471,2138.231c-5.358,0-10.668,0.258-15.962,0.759c-25.291,2.308-50.775,10.798-77.922,25.92
			c-24.807,13.912-47.031,31.714-67.367,48.903c-9.99,8.457-19.852,17.124-29.681,25.791c-11.346,9.99-22.692,19.997-34.297,29.681
			h-0.016c-13.331,11.023-25.501,20.175-37.186,27.986c-12.96,8.667-27.437,16.64-44.223,24.371
			c-31.795,14.3-66.608,24.742-103.487,31.101c-0.016,0-0.258,0.032-0.258,0.032l0.065,0.032
			c-23.709,3.793-47.289,5.729-70.127,5.729c-12.96,0-25.936-0.629-38.574-1.856c-27.308-2.857-54.374-9.054-78.955-18.27
			c-18.657-7.392-35.943-16.608-51.34-27.405c-0.952-0.662-2.292-1.017-3.793-1.017c-0.888,0-1.824,0.113-2.598,0.371
			c-2.05,0.629-3.793,2.066-4.826,3.906c-6.536,7.376-11.346,15.559-15.268,26.065c-3.567,9.797-5.939,20.481-7.247,32.699
			c-1.146,11.201-1.098,22.676,0.129,34.087c1.259,11.572,3.938,21.837,7.957,30.504c0.791,1.727,1.824,3.519,4.116,4.616
			c22.789,13.993,44.61,26.275,66.172,37.137c20.449,10.217,42.447,19.836,65.398,28.616c44.223,16.85,89.672,28.293,135.089,34.006
			c21.514,2.711,43.432,4.083,65.139,4.083c23.967,0,48.161-1.678,71.886-4.971c46.224-6.44,92.738-19.448,138.316-38.735
			c42.802-18.125,82.845-41.108,119.062-68.351c35.217-26.437,67.221-57.408,95.094-92.076
			c15.042-18.625,26.001-34.49,34.507-49.904c11.378-20.723,16.511-39.994,15.268-57.263c-1.291-18.093-12.734-33.861-21.208-44.158
			c-5.6-6.779-11.911-13.17-18.738-18.996c-5.843-4.955-11.879-9.135-17.947-12.379c-0.678-0.952-1.582-1.775-2.647-2.389
			c-7.182-4.325-15.171-7.957-24.435-11.104c-7.828-2.728-15.978-4.229-23.58-5.439
			C2337.257,2138.941,2328.332,2138.231,2319.471,2138.231"/>
		<path fill="#20627D" d="M1839.571,2976.939l-3.084,0.888l-0.516-0.129c-2.389,1.259-3.906,3.147-4.342,5.358
			c-1.582,3.405-1.388,5.487-0.63,7.812l4.729,14.574c2.518,7.876,5.1,15.752,7.812,23.693l0.387-2.018
			c26.098,96.838,39.074,196.581,47.467,272.679c11.475,103.648,19.287,203.569,23.322,296.937
			c1.519,32.86,2.841,71.192,4.035,120.676l0.952-2.211c-1.323,11.04-1.388,21.885-1.388,33.796l-0.063,5.358l-0.066,14.558
			l0.066,30.778c0.063,28.051,0,57.812-1.454,86.863c-0.194,3.228,1.194,6.311,3.535,7.828c0.5,1.065,1.695,2.082,3.083,2.582
			c19.174,7.182,41.043,11.717,66.77,13.928c8.005,0.629,15.833,0.952,23.257,0.952c4.858,0,9.522-0.129,14.074-0.387
			c2.26-0.065,4.535-0.242,7.489-0.565l2.534-0.194c6.553-0.936,11.911-2.018,16.64-3.276l1.759-0.872l0.694-0.323
			c-0.258,0.032-0.549,0.048-0.823,0.064l2.211-1.065l1.711-0.258l1.761-0.629c1.193-0.323,2.081-1.017,3.533-1.953
			c1.001-0.387,1.824-0.694,2.52-1.017l1.451-0.936c0.5-0.452,0.936-0.888,1.452-1.388c1.388-1.953,1.453-3.664,1.453-5.116
			l-0.888-39.962l-0.952-41.43l-0.565-30.956l-0.129-8.312l-0.129-6.617l-0.177-8.199v-2.211
			c-1.017-53.277-2.146-105.279-4.035-155.715l-0.387-10.846c-1.695-50.501-4.471-99.872-8.441-150.938l-1.388-18.528
			c-3.083-40.672-6.117-80.327-9.651-119.982l-0.436-4.47c-8.506-93.303-21.561-202.762-53.84-306.846
			c-0.131-1.001-0.373-1.888-0.954-2.711l-1.13-1.259l-0.968-1.033l-0.791-0.549l-0.694,0.064l-3.276-0.242l-11.604,0.307
			l-5.294,0.064h-5.294c-13.186,0-26.483-0.242-40.478-0.888c-7.634-0.307-15.074-0.694-22.45-1.194
			c-20.739-1.259-40.155-3.018-56.489-4.535H1839.571z"/>
		<path fill="#1C5369" d="M2579.235,2770.339c-3.778,1.259-7.635,2.647-11.848,4.358v0.936l-0.21,0.629
			c0,0.129,0.016,0.258,0.016,0.387c-5.229,1.824-9.894,3.406-14.185,4.777c-5.489,1.775-10.347,3.228-15.641,4.358l-0.032-0.081
			c-31.94,8.231-62.444,16.575-90.931,24.29c-49.694,13.751-98.92,27.615-148.162,41.673l-32.602,9.329l-38.638,11.169l-2.146,0.629
			l-24.968,7.182l-1.951,0.565l-47.404,13.686l-26.55,7.618l-30.197,8.764c0.065,0.129,0.065,0.194,0.065,0.323l0.371,5.1
			c0.629,10.023,1.888,19.545,3.034,27.873l0.307,2.147l0.823,5.423l0.629,5.294l1.081,3.147h1.065h0.307l1.453-0.371l1.84-0.129
			c1.001-0.065,1.953-0.194,2.824-0.258l6.246-1.565l2.082-0.581c7.182-1.259,14.316-2.76,21.627-4.342l3.907-0.694
			c20.431-4.664,40.719-9.522,61.281-14.623c17.721-4.422,35.557-9.022,53.842-13.88c48.419-12.799,106.86-29.503,178.666-51.066
			c41.479-12.411,82.909-25.339,125.276-38.574l11.411-3.47l3.599-0.823l14.042-4.261l-0.049-0.097l0.307-2.711l-0.307-1.695
			l-0.387-1.953c-1.695-11.217-3.212-20.739-4.729-29.326l-0.436-2.26l-0.692-3.47c-0.76-3.97-1.519-7.941-2.277-12.363
			l-0.807-1.452L2579.235,2770.339z"/>
		<path fill="#1C5369" d="M2057.785,2920.262c-3.97,1.065-7.118,2.017-10.152,3.276l-0.032,0.016
			c0.016,0.097,0.032,0.21,0.032,0.307l-16.14,5.229l-12.702,2.114l-2.116,0.404l-6.811,0.629l-6.922,1.775
			c-52.518,13.234-106.055,25.775-138.01,33.344l-10.588,2.518l-1.646-0.177c-2.905,0.678-3.841,1.13-4.535,1.63l-7.941,1.824
			c-2.211,0.581-4.035,1.905-5.552,4.1c0.129,0.258,1.759,0.565,1.822,0.565l3.084-0.871h1.904
			c16.315,1.501,35.731,3.276,56.489,4.535c7.376,0.5,14.816,0.888,22.434,1.194c13.993,0.629,27.308,0.888,40.478,0.888h5.294
			l5.294-0.065l11.604-0.323l3.276,0.258l0.952-0.129l-0.323-0.307l4.293-0.387l2.451-0.759c7.507-0.871,15.706-2.324,26.487-4.6
			l3.212-0.63c3.21-0.436,6.486-0.936,9.829-1.517c7.134-1.13,15.573-2.889,25.291-5.035l3.276-0.952l6.811-1.501l-0.064-0.064
			l0.064-1.775c0-4.035-0.436-7.553-1.019-11.217l-1.259-9.522l-0.821-5.988l-1.759-11.976l-2.018-7.812L2057.785,2920.262z"/>
		<path fill="#1C5369" d="M2613.593,2771.726l0.499,5.988l1.196,7.376l1.275,7.376l2.823,16.462l1.212,5.552l1.501-0.517
			l2.534-0.565l5.358-1.259l1.628-0.629l1.713-0.5l18.851-5.988l7.747-2.211l11.734-3.341l11.717-3.341l2.146-0.823l9.458-2.905
			l33.732-10.717c0,0,0.064-0.064,0.24-0.129c-0.434-0.694-1.13-0.936-2.017-0.936c-18.462-0.565-38.572-1.888-59.765-3.97
			c-18.559-2.018-36.958-4.422-53.842-6.746C2613.432,2770.515,2613.512,2771.113,2613.593,2771.726"/>
		<path fill="#297D9F" d="M2731.553,2780.869l-1.067,0.064c-0.064,0.065-1.775,0.694-1.775,0.759l-33.732,10.717l-9.458,2.905
			l-2.13,0.807l-11.734,3.341l-11.717,3.341l-7.763,2.211l-18.851,5.988l-1.695,0.5l-1.646,0.629l-5.357,1.275l-2.52,0.565
			l-1.515,0.517l0.192,0.936l-0.192,3.712l1.645,11.475l0.5,3.97l0.5,3.406l0.629,4.229l0.565,4.471l0.452,3.599l0.694,3.712
			l0.065,2.469l0.307,2.018l0.371,2.889l0.194,2.017l0.323,2.276c1.759,15.123,3.405,30.068,4.906,45.142l0.694,6.359l0.517,5.81
			l0.371,2.889l0.129,2.776l0.307,3.276l0.129,2.599c0.064,0.694,0.064,1.194,0.064,1.824c0.065,2.453-0.565,4.858-1.824,7.118
			c-2.34,4.422-6.746,8.07-11.475,9.393c-0.565,0.065-1.065,0.065-1.582,0.065h-0.129c-0.629,0.258-1.13,0.258-2.324,0.258
			c-1.13,0-2.211-0.194-3.47-0.5c-4.729-1.323-8.199-5.358-9.199-10.781l-0.759-2.469l-0.129-3.406
			c-0.194-2.195-0.258-3.147-0.258-4.035c-0.307-2.582-0.436-3.841-0.5-5.036l-0.371-3.664c-1.646-18.157-3.533-35.491-5.616-52.696
			l-1.001-7.699l-0.258-1.953l-0.436-3.406l-0.452-3.276l-0.371-2.776l-0.387-2.841l-0.371-3.083l-0.629-4.358l-0.63-4.471
			l-0.565-4.406l-0.387-2.211c-0.145-1.146-0.339-2.163-0.888-3.793l-18.028,4.035l-11.411,3.47
			c-42.366,13.25-83.779,26.162-125.26,38.59c-71.821,21.563-130.263,38.267-178.682,51.066c-18.27,4.858-36.12,9.458-53.842,13.864
			c-20.544,5.116-40.849,9.974-61.282,14.639l-3.97,0.694c-7.247,1.566-14.429,3.083-21.611,4.342l-2.018,0.565l-6.246,1.582
			c-0.952,0.064-1.888,0.194-2.905,0.258l-1.824,0.113l-2.647,0.694l0.307,0.952c0.517,5.988,1.259,11.281,2.146,16.575
			c2.084,13.88,4.293,27.373,6.877,41.43c3.276,17.334,6.745,34.603,10.392,51.873l0.452,3.099
			c0.194,3.406-0.629,6.617-2.647,10.281c-1.775,3.018-4.858,5.6-8.134,6.924l-1.953,0.823c-1.388,0.258-2.582,0.371-3.664,0.371
			c-3.083,0-6.117-0.807-8.568-2.324l-1.325-1.194c-1.759-1.711-2.905-3.728-3.664-6.246c-3.406-16.462-6.682-33.038-9.765-49.549
			l-1.323-7.198l-1.13-6.424c-2.711-15.188-5.423-31.214-7.828-47.79l-0.629-2.324l-1.13-1.905l-6.811,1.517l-3.276,0.952
			c-9.716,2.131-18.222,3.906-25.355,5.036c-3.341,0.565-6.617,1.081-9.829,1.517l-3.212,0.629
			c-10.781,2.276-18.914,3.712-26.485,4.6l-2.389,0.759l-4.358,0.371l1.888,1.969l1.081,1.259c0.565,0.807,0.888,1.695,1.001,2.711
			c32.279,104.084,45.336,213.527,53.842,306.83l0.452,4.487c3.519,39.655,6.553,79.31,9.635,119.966l1.388,18.544
			c3.906,51.066,6.682,100.421,8.457,150.922l0.371,10.846c1.888,50.436,2.97,102.454,4.035,155.731v2.195l0.194,8.199l0.129,6.617
			l0.113,8.328l0.581,30.956l0.936,41.414l0.888,39.978c0,1.453-0.129,3.147-1.451,5.1c-0.502,0.517-0.954,0.952-1.454,1.388
			l-1.517,0.952c-0.629,0.307-1.436,0.629-2.453,1.001c-1.517,0.952-2.389,1.646-3.535,1.953l-1.758,0.629l-1.761,0.258
			l-2.147,1.065c11.782-0.742,24.403-3.276,42.173-8.07c10.475-2.695,20.304-5.601,29.568-8.376
			c24.532-7.311,48.919-14.945,73.258-22.563c29.39-9.151,58.764-18.48,88.074-27.809l1.582-0.436l28.115-8.893l27.679-8.893
			l40.543-12.928l32.586-10.458l17.594-5.552l17.591-5.617l2.146-0.694l3.276-1.001c11.411-3.664,22.821-7.311,34.103-10.781
			l68.464-21.498c99.42-31.392,204.78-66.075,303.507-113.413c1.887-0.823,3.662-2.534,4.469-4.358
			c1.517-0.565,2.969-1.824,3.97-3.534c1.146-1.824,2.082-4.729,1.323-6.747c-7.553-23.693-14.058-45.449-20.481-68.464
			c-6.181-23.08-11.346-44.82-16.64-70.482c-10.41-49.549-18.916-94.32-27.679-145.192c-6.617-37.637-12.992-75.404-19.239-113.042
			l-5.665-33.296l-1.775-10.523l-1.759-10.023c-3.018-17.269-5.988-34.732-8.698-52.196c-3.843-24.161-7.442-48.548-10.654-72.951
			c-9.087-66.253-15.381-130.876-18.787-192.158c-1.017-20.998-1.888-42.173-2.405-63.493c-0.065-1.824-0.307-4.229-2.082-5.923
			c-1.695-3.841-4.664-6.052-8.376-6.052H2731.553z"/>
		<path fill="#F9E8B9" d="M2087.259,2534.628h-0.016l-0.064,0.064c-3.938,0.904-7.908,1.646-12.008,2.292l-5.794,0.807
			l-10.217,1.453l-3.841,0.759c-3.712,33.409-6.166,70.498-7.457,110.363c-2.26,81.957,2.001,168.869,12.669,258.315l0.63,5.552
			l0.629,4.971l1.969,7.828l1.808,12.04l0.823,5.988l1.259,9.522c0.565,3.647,1.017,7.166,1.017,11.201l-0.065,1.759l1.162,1.969
			l0.613,2.308c2.437,16.624,5.165,32.634,7.876,47.838l1.146,6.424l1.323,7.198c3.083,16.511,6.359,33.022,9.765,49.484
			c0.694,2.55,1.856,4.535,3.631,6.262l1.34,1.21c2.453,1.485,5.504,2.292,8.554,2.292c1.065,0,2.292-0.113,3.68-0.371l1.92-0.775
			c3.309-1.323,6.359-3.922,8.151-6.94c2.001-3.68,2.792-6.843,2.615-10.297l-0.452-3.115c-3.647-17.205-7.117-34.539-10.394-51.873
			c-2.582-14.074-4.793-27.566-6.875-41.43c-0.888-5.294-1.63-10.571-2.146-16.559l-1.469-4.39l-0.678-5.326l-0.807-5.439
			l-0.323-2.146c-1.13-8.296-2.389-17.818-3.018-27.841l-0.387-5.116c-7.279-58.103-11.798-117.077-13.428-175.309
			c-2.017-70.385,0.387-136.025,7.311-200.648C2087.663,2534.951,2087.308,2534.628,2087.259,2534.628"/>
		<path fill="#F9E8B9" d="M2044.657,2541.454L2044.657,2541.454l-3.276,0.436l-1.63,0.129c-5.116,0.5-10.152,0.887-15.252,1.259
			l-11.411,0.888c-7.36,59.022-10.507,122.5-9.797,194.208c1.017,65.123,5.391,130.166,13.041,193.256l15.203-2.566l16.091-5.181
			c-14.735-136.202-15.655-264.69-2.599-382.073C2045.012,2541.809,2044.657,2541.454,2044.657,2541.454"/>
		<path fill="#F9E8B9" d="M2231.854,2151.517L2231.854,2151.517l-1.323,0.065c-4.987,0.064-8.651,0.194-12.315,0.759
			c-4.535,0.5-9.313,1.469-14.574,2.889c-8.764,2.292-17.641,5.729-26.388,10.233c-13.735,7.021-26.873,16.769-40.139,29.794
			l-1.711,1.888l-2.018,2.082l-1.485,1.243c-11.185,11.992-21.449,25.581-32.376,42.786c-7.618,12.169-14.558,24.984-21.208,39.171
			l1.808-0.613c2.098-1.582,4.116-3.228,6.085-4.874l1.307-1.049c1.485-1.21,2.954-2.421,4.487-3.551
			c1.13-0.936,2.26-1.824,3.454-2.647l2.534-2.017c2.647-2.389,5.358-4.729,8.005-6.989c3.664-3.163,7.376-6.311,11.169-9.393
			l1.63-1.598l2.711-2.583l2.776-2.582c4.164-3.954,8.441-7.747,12.992-11.281c3.987-3.535,7.941-7.053,11.976-10.458
			c3.147-2.841,6.359-5.681,9.587-8.441l1.566-1.21l3.276-2.582c5.294-4.858,9.91-8.312,14.558-11.717
			c1.404-1.388,2.792-2.599,4.342-3.728l1.953-1.372l1.388-0.952c0.888-0.613,1.824-1.194,2.76-1.63
			c1.001-0.436,2.001-0.823,3.083-1.178c0.742-0.307,1.565-0.484,2.615-0.629c1.146-0.387,2.276-0.629,3.406-0.823
			c4.277-0.759,7.053-1.13,9.958-1.517h0.597h1.098c1.146-0.178,2.26-0.307,3.389-0.371c2.711-0.194,5.488-0.387,8.183-0.387h1.824
			c1.146,0,2.211,0.064,3.325,0.194c7.376,0,13.622,0.436,19.739,1.388c6.521,1.017,12.186,2.292,17.302,3.841
			c3.535,1.081,7.069,2.26,10.458,3.712c1.065,0.436,2.146,0.871,3.212,1.388c2.34,0.936,4.664,2.017,6.859,3.276
			c2.389,1.323,4.664,2.76,6.795,4.39c4.229,2.711,7.053,4.664,9.764,6.746c9.716,7.44,18.431,15.107,26.663,23.386
			c6.052,6.052,11.346,11.653,16.382,17.399l2.017,2.373c30.665,36.976,57.731,81.586,85.217,140.366
			c25.291,57.877,46.643,119.611,65.236,188.753c10.668,40.478,20.062,82.07,27.921,123.614l0.759,3.083l1.695,9.958l0.387,2.082
			l0.339,1.985c1.533,8.909,3.051,17.786,4.455,26.776l0.936,5.665l0.565,3.47l0.517,3.034l0.274,1.711
			c0.517,3.276,1.033,6.456,1.679,9.635c0.242,3.131,0.629,6.343,1.065,9.506l0.968,1.824c5.294-1.13,10.152-2.566,15.639-4.342
			c4.293-1.388,8.958-2.954,14.187-4.793c-0.597-10.798-2.018-20.207-3.422-28.938c-0.065-1.081-0.21-1.953-0.452-2.776l-0.5-2.195
			c-2.066-14.38-4.519-28.745-7.247-42.996c-7.892-42.238-17.156-83.813-27.55-123.533l-1.146-4.035
			c-14.219-52.954-29.568-99.678-46.821-142.529c30.359,68.19,55.359,142.917,76.34,228.23c4.713,19.61,9.071,38.461,12.976,57.376
			c2.582,12.411,5.116,24.581,7.44,36.879l1.194,6.294l1.259,6.94l0.888,4.422l0.839,1.614c0.807,4.438,1.565,8.393,2.308,12.363
			l0.694,3.422l0.452,2.324c1.501,8.586,3.018,18.093,4.729,29.31l0.371,1.969l0.323,1.695l-0.323,2.663
			c0.872,2.389,1.13,3.567,1.323,4.955l0.387,2.227l0.565,4.39l0.629,4.471l0.63,4.358l0.371,3.083l0.387,2.841l0.371,2.776
			l0.452,3.276l0.436,3.406l0.242,1.953l1.017,7.698c2.082,17.205,3.97,34.539,5.616,52.696l0.371,3.664
			c0.064,1.194,0.194,2.453,0.5,5.036c0,0.872,0.064,1.824,0.258,4.035l0.129,3.389l0.71,2.453c1.001,5.439,4.471,9.49,9.248,10.83
			c1.21,0.291,2.324,0.436,3.438,0.436c1.227,0,1.727,0,2.324-0.194h0.113c0.549,0,1.049-0.049,1.582-0.113
			c4.745-1.307,9.183-4.955,11.508-9.361c1.259-2.292,1.856-4.697,1.792-7.134c0-0.629,0-1.146-0.065-1.84l-0.129-2.582
			l-0.307-3.292l-0.129-2.76l-0.371-2.905l-0.516-5.81l-0.694-6.359c-1.501-15.074-3.147-30.003-4.906-45.143l-0.323-2.292
			l-0.194-2.001l-0.371-2.889l-0.323-2.033l-0.048-2.437l-0.694-3.744l-0.452-3.583l-0.565-4.47l-0.629-4.245l-0.5-3.406l-0.5-3.954
			l-1.646-11.491l0.194-3.68l-1.404-6.472l-2.824-16.511l-1.259-7.376l-1.194-7.376l-0.516-5.971
			c-0.759-5.698-1.695-11.056-2.647-16.414c-0.129-1.001-0.242-1.63-0.387-2.26l-2.389-12.992l-0.371-2.276
			c-2.405-12.411-4.745-23.887-7.134-35.297c-3.922-18.544-8.07-36.443-12.427-54.294l-0.5-1.969
			c-15.849-64.155-34.749-124.792-56.182-180.199c-25.936-66.689-53.729-122.112-84.927-169.434
			c-13.557-20.384-27.438-38.525-42.383-55.423l-4.922-5.488c-5.891-6.343-12.912-13.283-20.885-20.691
			c-27.486-24.597-54.358-39.736-82.151-46.321c-4.116-2.598-8.651-4.842-14.671-7.311c-7.876-3.212-16.462-5.826-25.484-7.747
			C2248.736,2152.179,2241.021,2151.517,2231.854,2151.517"/>
	</g>
</g>
</svg>
