<svg id="https://s3.ap-south-1.amazonaws.com/walkover.things-of-brand.assets/4ba2886da8d621b5fe9a36ab03aa948f" xmlns="http://www.w3.org/2000/svg" width="71.163" height="20.392" viewBox="0 0 71.163 20.392">
  <g id="Group_5124" data-name="Group 5124" transform="translate(-432.055 -426.763)">
    <path id="Path_2500" data-name="Path 2500" d="M487.925,426.763h0a5.113,5.113,0,0,1,5.1,5.1v5.1h-5.1a5.113,5.113,0,0,1-5.1-5.1h0A5.113,5.113,0,0,1,487.925,426.763Z" fill="#1f2b35" fill-rule="evenodd"/>
    <path id="Path_2501" data-name="Path 2501" d="M498.121,447.155h0a5.113,5.113,0,0,1-5.1-5.1v-5.1h5.1a5.112,5.112,0,0,1,5.1,5.1h0A5.112,5.112,0,0,1,498.121,447.155Z" fill="#128381" fill-rule="evenodd"/>
    <path id="Path_2502" data-name="Path 2502" d="M437.309,446.789h1.482v-9.83h-1.56v4.382h-.039a2.57,2.57,0,0,0-2.12-.949,3.06,3.06,0,0,0-3.017,3.276,3.029,3.029,0,0,0,3.082,3.277,2.408,2.408,0,0,0,2.146-1.092h.026v.936Zm-3.694-3.121a1.834,1.834,0,1,1,1.834,1.873,1.807,1.807,0,0,1-1.834-1.873Zm6.633,0a3.4,3.4,0,1,0,3.394-3.276,3.235,3.235,0,0,0-3.394,3.276Zm1.56,0a1.834,1.834,0,1,1,1.834,1.873,1.806,1.806,0,0,1-1.834-1.873Zm7.243-1.794v2.861c0,1.469.39,2.21,2.042,2.21a3.291,3.291,0,0,0,1.235-.208v-1.313a1.625,1.625,0,0,1-.845.195c-.689,0-.871-.39-.871-1.014v-2.731h1.716v-1.326h-1.716V438.74h-1.561v1.808h-1.287v1.326Zm8.869-.533a2.7,2.7,0,0,0-2.224-.949c-1.261,0-2.51.624-2.51,2.017,0,2.378,3.368,1.366,3.368,2.651,0,.494-.585.715-1.04.715a1.908,1.908,0,0,1-1.482-.767l-1.041.975a3.053,3.053,0,0,0,2.432.962c1.274,0,2.692-.52,2.692-2,0-2.428-3.368-1.517-3.368-2.638,0-.47.494-.665.91-.665a1.413,1.413,0,0,1,1.222.639l1.041-.938Zm5.3,5.448h1.4V443.2c0-.884,0-2.808-2.666-2.808a3.658,3.658,0,0,0-2.653,1l.819.819a2.459,2.459,0,0,1,1.665-.65c.832,0,1.43.4,1.43,1.17v.169h-.39c-1.56,0-3.927.143-3.927,2.172a2.029,2.029,0,0,0,2.276,1.872,2.242,2.242,0,0,0,2-1.014h.039v.858Zm-.091-2.444c0,.871-.507,1.43-1.573,1.43-.507,0-1.093-.247-1.093-.819,0-.9,1.483-.962,2.341-.962h.325v.351Zm3.2,2.444h1.561v-9.83h-1.561v9.83Zm9.363-2.574v-.429c0-2.172-1.183-3.394-2.926-3.394a3.277,3.277,0,1,0,2.64,5.3l-1.118-.845a2.053,2.053,0,0,1-1.678.845,1.617,1.617,0,0,1-1.677-1.482Zm-4.759-1.171a1.552,1.552,0,0,1,1.612-1.482,1.436,1.436,0,0,1,1.587,1.482Zm6.216,2.835a1.041,1.041,0,1,0,1.04-1.014,1.024,1.024,0,0,0-1.04,1.014Zm3.875.91h1.56v-6.241h-1.56v6.241Zm-.222-8.361a1,1,0,1,0,.989-.936.962.962,0,0,0-.989.936Zm3.577,8.361h1.56v-3.407a1.4,1.4,0,0,1,1.43-1.586c1.093,0,1.145,1.144,1.145,1.833v3.16h1.56v-3.94a2.174,2.174,0,0,0-2.275-2.457,1.956,1.956,0,0,0-1.912,1.157h-.026v-1h-1.482Z" fill="#1f2b35" fill-rule="evenodd"/>
  </g>
</svg>